<svg xmlns="http://www.w3.org/2000/svg" preserveAspectRatio="xMidYMid" width="20" height="17" viewBox="0 0 20 17">
  <g>
    <path fill="#06273f" fill-rule="evenodd" d="M10.000,7.000 L7.000,7.000 L7.000,10.000 L3.000,10.000 L3.000,7.000 L-0.000,7.000 L-0.000,3.000 L3.000,3.000 L3.000,-0.000 L7.000,-0.000 L7.000,3.000 L10.000,3.000 L10.000,7.000 Z"/>
    <path fill="#0f5b90" fill-rule="evenodd" d="M7.000,7.000 L7.000,10.000 L4.000,10.000 L4.000,8.000 L3.000,8.000 L3.000,7.000 L1.000,7.000 L1.000,4.000 L4.000,4.000 L4.000,1.000 L7.000,1.000 L7.000,3.000 L8.000,3.000 L8.000,4.000 L10.000,4.000 L10.000,7.000 L7.000,7.000 Z"/>
    <path fill="#06273f" fill-rule="evenodd" d="M20.000,14.000 L17.000,14.000 L17.000,17.000 L13.000,17.000 L13.000,14.000 L10.000,14.000 L10.000,10.000 L13.000,10.000 L13.000,7.000 L17.000,7.000 L17.000,10.000 L20.000,10.000 L20.000,14.000 Z"/>
    <path fill="#0f5b90" fill-rule="evenodd" d="M17.000,14.000 L17.000,17.000 L14.000,17.000 L14.000,15.000 L13.000,15.000 L13.000,14.000 L11.000,14.000 L11.000,11.000 L14.000,11.000 L14.000,8.000 L17.000,8.000 L17.000,10.000 L18.000,10.000 L18.000,11.000 L20.000,11.000 L20.000,14.000 L17.000,14.000 Z"/>
  </g>
</svg>