<svg xmlns="http://www.w3.org/2000/svg" xmlns:xlink="http://www.w3.org/1999/xlink" preserveAspectRatio="xMidYMid" width="18" height="18" viewBox="0 0 18 18">
  <defs>
    <style>
      .cls-1 {
        fill: #06273f;
      }

      .cls-1, .cls-2 {
        fill-rule: evenodd;
      }

      .cls-2 {
        fill: #0f5b90;
      }
    </style>
  </defs>
  <g>
    <path d="M18.000,11.000 L11.000,11.000 L11.000,18.000 L7.000,18.000 L7.000,11.000 L-0.000,11.000 L-0.000,7.000 L7.000,7.000 L7.000,-0.000 L11.000,-0.000 L11.000,7.000 L18.000,7.000 L18.000,11.000 Z" class="cls-1"/>
    <path d="M11.000,11.000 L11.000,18.000 L8.000,18.000 L8.000,12.000 L7.000,12.000 L7.000,11.000 L1.000,11.000 L1.000,8.000 L8.000,8.000 L8.000,7.000 L8.000,1.000 L11.000,1.000 L11.000,7.000 L12.000,7.000 L12.000,8.000 L18.000,8.000 L18.000,11.000 L11.000,11.000 Z" class="cls-2"/>
  </g>
</svg>
