<svg xmlns="http://www.w3.org/2000/svg" x="0px" y="0px" width="14px" height="14px" viewBox="-923.4 546.8 14 14" style="enable-background:new -923.4 546.8 14 14;" xml:space="preserve">
<path fill="#FFFFFF" fill-rule="evenodd" d="M-918.1,556.8l-3.7,3.7c-0.4,0.4-0.9,0.4-1.3,0l0,0c-0.4-0.4-0.4-0.9,0-1.3l3.7-3.7c-0.6-0.9-1-2-1-3.2
	c0-3,2.5-5.5,5.5-5.5s5.5,2.5,5.5,5.5s-2.5,5.5-5.5,5.5C-916.1,557.8-917.2,557.5-918.1,556.8L-918.1,556.8z M-914.8,556.5
	c2.3,0,4.3-1.9,4.3-4.3c0-2.3-1.9-4.3-4.3-4.3c-2.3,0-4.3,1.9-4.3,4.3C-919.1,554.7-917.2,556.5-914.8,556.5L-914.8,556.5z"/>
</svg>