<svg xmlns="http://www.w3.org/2000/svg" width="14px" x="0px" y="0px" viewBox="-252.1 391.2 14 12" style="enable-background:new -252.1 391.2 14 12;" xml:space="preserve">

<path fill="#242424" fill-rule="evenodd" d="M-250.9,401.7L-250.9,401.7c0.2-0.1,0.3-0.2,0.4-0.3c0.1-0.1,0.2-0.3,0.2-0.4c0-0.2-0.1-0.3-0.2-0.5
	c-0.1-0.1-0.4-0.2-0.6-0.2c-0.2,0-0.3,0-0.5,0.1c-0.1,0-0.3,0.1-0.4,0.2l0.3,0.5c0.2-0.1,0.3-0.2,0.5-0.2c0.1,0,0.2,0,0.2,0.1
	c0.1,0,0.1,0.1,0.1,0.1c0,0.2-0.2,0.3-0.5,0.3h-0.1v0.7h0.1c0.1,0,0.2-0.1,0.3,0c0.1,0,0.1,0,0.2,0.1c0,0,0.1,0.1,0.1,0.2
	c0,0.1,0,0.2-0.1,0.2c-0.1,0-0.2,0.1-0.3,0.1c-0.1,0-0.2,0-0.3,0c-0.1,0-0.1-0.1-0.4-0.1v0.6c0.2,0.1,0.3,0.1,0.4,0.1
	c0.1,0,0.3,0,0.4,0c0.3,0,0.6-0.1,0.8-0.2c0.2-0.1,0.3-0.3,0.3-0.6C-250.3,402-250.5,401.8-250.9,401.7z"/>
<path fill="#242424" fill-rule="evenodd" d="M-251.1,397.9c0.3-0.3,0.5-0.5,0.5-0.5c0.1-0.1,0.1-0.2,0.2-0.3c0.1-0.1,0.1-0.2,0.1-0.3c0-0.1,0-0.2,0-0.3
	c0-0.1,0-0.3-0.1-0.4c-0.1-0.1-0.2-0.2-0.3-0.3c-0.1-0.1-0.3-0.1-0.4-0.1c-0.1,0-0.2,0-0.4,0c-0.1,0-0.2,0.1-0.3,0.1
	s-0.2,0.1-0.3,0.3l0.4,0.5c0.1-0.1,0.2-0.2,0.3-0.2c0.1,0,0.2-0.1,0.2-0.1c0.1,0,0.1,0,0.2,0.1s0.1,0.1,0.1,0.2c0,0.1,0,0.1,0,0.2
	c0,0.1-0.1,0.1-0.1,0.2s-0.2,0.2-0.4,0.4l-0.6,0.7v0.4h1.9v-0.5L-251.1,397.9L-251.1,397.9z"/>
<path fill="#242424" fill-rule="evenodd" d="M-251.3,392.2c0.1-0.1,0.2-0.1,0.2-0.2c0,0.1,0,0.3,0,0.5v1.4h0.5v-2.7h-0.5l-0.9,0.8l0.4,0.5L-251.3,392.2z"/>
<rect fill="#242424" fill-rule="evenodd" x="-248.7" y="401" width="10.6" height="1.5"/>
<rect fill="#242424" fill-rule="evenodd" x="-248.7" y="396.4" width="10.6" height="1.5"/>
<rect fill="#242424" fill-rule="evenodd" x="-248.7" y="391.8" width="10.6" height="1.5"/>
</svg>