<svg xmlns="http://www.w3.org/2000/svg" width="12px" height="8px" x="0px" y="0px" viewBox="-592 787.5 12.1 7.9" style="enable-background:new -592 787.5 12.1 7.9;" xml:space="preserve">
<path fill="#474747" fill-rule="evenodd" d="M-586.2,795.4h-1.5V792h-2.8v3.4h-1.5v-7.9h1.5v3.1h2.8v-3.1h1.5V795.4z"/>
<path fill="#474747" fill-rule="evenodd" d="M-580,795.4h-4.9v-1.2l1.8-2c0.5-0.6,0.9-1,1-1.2c0.1-0.2,0.3-0.4,0.3-0.6c0.1-0.2,0.1-0.4,0.1-0.6c0-0.3-0.1-0.6-0.2-0.7
	c-0.2-0.2-0.4-0.2-0.6-0.2c-0.3,0-0.5,0.1-0.8,0.2c-0.3,0.1-0.5,0.3-0.8,0.6l-0.8-1.1c0.3-0.3,0.6-0.6,0.9-0.7
	c0.2-0.1,0.5-0.2,0.7-0.3s0.6-0.1,0.9-0.1c0.4,0,0.8,0.1,1.2,0.3c0.3,0.2,0.6,0.4,0.8,0.8c0.2,0.3,0.3,0.7,0.3,1.1
	c0,0.4-0.1,0.7-0.2,1c-0.1,0.3-0.3,0.6-0.5,1c-0.2,0.3-0.7,0.8-1.3,1.4l-0.9,1v0.1h3.1L-580,795.4L-580,795.4z"/>
</svg>