<svg version="1.1" xmlns="http://www.w3.org/2000/svg" x="0px" y="0px" width="18px" height="18px"
	 viewBox="-455.3 272.7 18 18" style="enable-background:new -455.3 272.7 18 18;" xml:space="preserve">
		<path fill="#ffffff" fill-rule="evenodd" d="M-448.6,285.7l-4.7,4.7c-0.5,0.5-1.2,0.5-1.7,0l0,0c-0.5-0.5-0.5-1.2,0-1.7l4.7-4.7c-0.8-1.2-1.3-2.6-1.3-4.1
			c0-3.9,3.2-7.1,7.1-7.1s7.1,3.2,7.1,7.1s-3.2,7.1-7.1,7.1C-446,287-447.4,286.5-448.6,285.7L-448.6,285.7z M-444.4,285.3
			c3,0,5.5-2.4,5.5-5.5c0-3-2.4-5.5-5.5-5.5c-3,0-5.5,2.4-5.5,5.5C-449.9,282.9-447.4,285.3-444.4,285.3L-444.4,285.3z"/>
</svg>
