<svg xmlns="http://www.w3.org/2000/svg" preserveAspectRatio="xMidYMid" width="18" height="18" viewBox="0 0 18 18">
    <path fill="#06273f" fill-rule="evenodd" d="M18.000,11.000 L11.000,11.000 L11.000,18.000 L7.000,18.000 L7.000,11.000 L-0.000,11.000 L-0.000,7.000 L7.000,7.000 L7.000,-0.000 L11.000,-0.000 L11.000,7.000 L18.000,7.000 L18.000,11.000 Z"/>
    <path fill="#0f5b90" fill-rule="evenodd" d="M11.000,11.000 L11.000,18.000 L8.000,18.000 L8.000,12.000 L7.000,12.000 L7.000,11.000 L1.000,11.000 L1.000,8.000 L8.000,8.000 L8.000,7.000 L8.000,1.000 L11.000,1.000 L11.000,7.000 L12.000,7.000 L12.000,8.000 L18.000,8.000 L18.000,11.000 L11.000,11.000 Z"/>
</svg>