<svg xmlns="http://www.w3.org/2000/svg" preserveAspectRatio="xMidYMid" width="16" height="7" viewBox="0 0 16 7">
  <path fill="#c6c6c6" fill-rule="evenodd" d="M16.000,3.000 L16.000,4.000 L13.000,4.000 L13.000,7.000 L12.000,7.000 L12.000,4.000 L12.000,3.000 L12.000,1.000 L12.000,0.000 L13.000,0.000 L16.000,0.000 L16.000,1.000 L13.000,1.000 L13.000,3.000 L16.000,3.000 ZM8.000,7.000 L7.000,7.000 L7.000,4.000 L7.000,3.000 L7.000,1.000 L7.000,0.000 L8.000,0.000 L11.000,0.000 L11.000,1.000 L8.000,1.000 L8.000,3.000 L11.000,3.000 L11.000,4.000 L8.000,4.000 L8.000,7.000 ZM5.000,1.000 L6.000,1.000 L6.000,6.000 L5.000,6.000 L5.000,1.000 ZM5.000,7.000 L1.000,7.000 L1.000,6.000 L5.000,6.000 L5.000,7.000 ZM-0.000,6.000 L-0.000,1.000 L1.000,1.000 L1.000,6.000 L-0.000,6.000 ZM1.000,0.000 L5.000,0.000 L5.000,1.000 L1.000,1.000 L1.000,0.000 Z"/>
</svg>