<svg xmlns="http://www.w3.org/2000/svg" width="12px" height="8px" x="0px" y="0px" viewBox="-296 392.6 12 8" style="enable-background:new -296 392.6 12 8;" xml:space="preserve">
<path fill="#474747" fill-rule="evenodd" d="M-290.2,400.6h-1.5v-3.4h-2.8v3.4h-1.5v-7.9h1.5v3.1h2.8v-3.1h1.5V400.6z"/>
<path fill="#474747" fill-rule="evenodd" d="M-286.3,395.5c0.7,0,1.2,0.2,1.6,0.6c0.4,0.4,0.6,1,0.6,1.8c0,0.9-0.2,1.6-0.7,2c-0.5,0.5-1.2,0.7-2.1,0.7
	c-0.8,0-1.4-0.1-1.9-0.4v-1.4c0.3,0.2,0.6,0.3,0.9,0.4c0.3,0.1,0.7,0.1,1,0.1c0.9,0,1.4-0.4,1.4-1.3c0-0.8-0.5-1.2-1.4-1.2
	c-0.2,0-0.4,0-0.6,0.1c-0.2,0-0.4,0.1-0.5,0.1l-0.6-0.4l0.3-4h3.9v1.4h-2.5l-0.1,1.5l0.2,0C-286.8,395.5-286.6,395.5-286.3,395.5z"
	/>
</svg>