<svg version="1.1" id="Layer_1" xmlns="http://www.w3.org/2000/svg" width="14px" height="13px" x="0px" y="0px" viewBox="188.5 390.1 14 13" style="enable-background:new 188.5 390.1 14 13;" xml:space="preserve">
<path fill="#242424" fill-rule="evenodd" d="M188.5,402c0,0.6,0.5,1.2,1.2,1.2h3.9c0.7,0,1.2-0.5,1.2-1.2v-4.6c0-0.6-0.5-1.2-1.2-1.2h-1.9
	c-0.3,0-0.6-0.3-0.6-0.6c0-0.1,0-0.2,0-0.2c0.4-1.4,1.5-2.5,2.9-3l0,0c0.4-0.2,0.7-0.6,0.7-1.1c0-0.6-0.5-1.2-1.2-1.2
	c-0.2,0-0.3,0-0.5,0.1l-0.1,0c-2.7,1-4.6,3.5-4.6,6.5V402z M196.2,402c0,0.6,0.5,1.2,1.2,1.2h3.9c0.7,0,1.2-0.5,1.2-1.2v-4.6
	c0-0.6-0.5-1.2-1.2-1.2h-1.9c-0.3,0-0.6-0.3-0.6-0.6c0-0.1,0-0.2,0-0.2c0.4-1.4,1.5-2.5,2.9-3l0,0c0.4-0.2,0.7-0.6,0.7-1.1
	c0-0.6-0.5-1.2-1.2-1.2c-0.2,0-0.3,0-0.5,0.1l-0.1,0c-2.7,1-4.6,3.5-4.6,6.5V402z"/>
</svg>