<svg xmlns="http://www.w3.org/2000/svg" height="14px" x="0px" y="0px" viewBox="-581.2 777.7 10 14" style="enable-background:new -581.2 777.7 10 14;" xml:space="preserve">
	<path fill="#242424" fill-rule="evenodd" d="M-571.2,787.6c0,1.3-0.4,2.3-1.2,3c-0.8,0.7-2,1.1-3.6,1.1h-5.1v-14h5.1c0.7,0,1.3,0.1,1.9,0.2
		c0.6,0.2,1,0.4,1.4,0.7c0.4,0.3,0.7,0.7,0.9,1.1c0.2,0.5,0.3,0.9,0.3,1.5c0,1.4-0.6,2.4-1.9,3c0.8,0.2,1.4,0.6,1.8,1.2
		C-571.4,786.1-571.2,786.8-571.2,787.6z M-578.5,783.3h2.1c0.6,0,1.1-0.2,1.4-0.4c0.3-0.2,0.4-0.7,0.4-1.2s-0.1-0.9-0.4-1.2
		c-0.3-0.2-0.8-0.4-1.6-0.4h-2.1L-578.5,783.3L-578.5,783.3z M-578.5,789.3h2.2c0.7,0,1.3-0.2,1.6-0.5c0.4-0.3,0.6-0.8,0.6-1.4
		c0-0.3-0.1-0.6-0.1-0.8c-0.1-0.2-0.2-0.4-0.4-0.5c-0.1-0.2-0.4-0.2-0.7-0.3c-0.3-0.1-0.6-0.1-1.1-0.1h-2.1
		C-578.5,785.7-578.5,789.3-578.5,789.3z"/>
</svg>