<svg xmlns="http://www.w3.org/2000/svg" viewBox="0 0 125 125"><g fill-rule="evenodd"><path stroke-linecap="square" stroke="#acacac" fill="#efefef" d="m0 0h125v125h-125v-125"/><g fill="#cdcdcd"><path d="m38 88h50v-50h-50v50m2-48h46v46h-46v-46"/><path d="m78.74 72.24l1.41-1.42-11.5-11.5-7.7 7.63-3.61-3.6-11.5 11.5 1.42 1.41 10.08-10.08 11.09 11.08 1.41-1.41-7.48-7.49 6.29-6.21 10.09 10.09"/><path d="m55.09 48.35c-2.76 0-5 2.24-5 5 0 2.77 2.24 5 5 5 2.77 0 5-2.23 5-5 0-2.76-2.23-5-5-5m0 2c1.66 0 3 1.35 3 3 0 1.66-1.34 3-3 3-1.65 0-3-1.34-3-3 0-1.65 1.35-3 3-3"/></g></g></svg>