<?xml version="1.0" encoding="utf-8"?>
<!-- Generator: Adobe Illustrator 19.1.0, SVG Export Plug-In . SVG Version: 6.00 Build 0)  -->
<svg version="1.1" id="Layer_1" xmlns="http://www.w3.org/2000/svg" xmlns:xlink="http://www.w3.org/1999/xlink" x="0px" y="0px"
	 width="19px" height="19px" viewBox="-296 387 19 19" style="enable-background:new -296 387 19 19;" xml:space="preserve">
<style type="text/css">
	.st0{fill:#d2cfcf;}
</style>
<path class="st0" d="M-279,396.5c0-0.2,0-0.4,0-0.5l2-0.1c-0.1-1.3-0.4-2.5-1-3.6l-1.8,0.9c-0.5-0.9-1.1-1.7-1.8-2.3l1.3-1.5
	c-1-0.8-2.1-1.4-3.3-1.8l-0.6,1.9c-0.7-0.2-1.5-0.3-2.3-0.3v-2c-1.3,0-2.5,0.3-3.7,0.7l0.8,1.8c-0.9,0.4-1.8,1-2.4,1.7l-1.4-1.4
	c-0.9,0.9-1.6,2-2.1,3.2l1.8,0.7c-0.3,0.9-0.5,1.8-0.5,2.8c0,0.1,0,0.1,0,0.2l-2,0c0,1.3,0.3,2.5,0.8,3.7l1.8-0.8
	c0.4,0.9,1,1.7,1.7,2.4l-1.4,1.5c0.9,0.9,2,1.5,3.2,2l0.7-1.9c0.8,0.3,1.7,0.5,2.6,0.5c0.1,0,0.2,0,0.4,0l0.1,2
	c1.3-0.1,2.5-0.4,3.7-0.9l-0.9-1.8c0.9-0.4,1.7-1,2.4-1.8l1.5,1.3c0.9-1,1.5-2.1,1.9-3.3l-1.9-0.6C-279.1,398.2-279,397.4-279,396.5
	z M-286.5,401.1c-2.5,0-4.5-2-4.5-4.5c0-2.5,2-4.5,4.5-4.5c2.5,0,4.5,2,4.5,4.5C-282,399-284,401.1-286.5,401.1z"/>
</svg>
