<svg xmlns="http://www.w3.org/2000/svg" width="20" height="20" viewBox="-291 387 20 20" enable-background="new -291 387 20 20"><path d="m-281 396.2c-.5 0-.8.4-.8.8s.4.8.8.8.8-.4.8-.8-.3-.8-.8-.8m0 3.3c-1.4 0-2.5-1.1-2.5-2.5s1.1-2.5 2.5-2.5 2.5 1.1 2.5 2.5-1.1 2.5-2.5 2.5m-5.8-3.3h-4.2v1.7h4.2v-1.7m15.8 0h-4.2v1.7h4.2v-1.7m-9.2 6.6h-1.7v4.2h1.7v-4.2m0-15.8h-1.7v4.2h1.7v-4.2m.9 16.5v1.7c3.3-.7 5.8-3.2 6.5-6.5h-1.7c-.7 2.3-2.5 4.1-4.8 4.8m-8.2-4.8h-1.7c.7 3.3 3.2 5.8 6.5 6.5v-1.7c-2.3-.7-4.1-2.5-4.8-4.8m13-3.4h1.7c-.7-3.3-3.2-5.8-6.5-6.5v1.7c2.3.7 4.1 2.5 4.8 4.8m-13 0h-1.7c.7-3.3 3.2-5.8 6.5-6.5v1.7c-2.3.7-4.1 2.5-4.8 4.8" fill="#979aa3"/></svg>