<svg xmlns="http://www.w3.org/2000/svg" width="21" height="35" viewBox="0 0 21 35">
 <g fill-rule="evenodd">
  <path fill="#e0d018" d="m10.5 35c-5.799 0-10.5-4.701-10.5-10.5 0-5.799 4.701-10.5 10.5-10.5 5.799 0 10.5 4.701 10.5 10.5 0 5.799-4.701 10.5-10.5 10.5m0-18.667c-4.51 0-8.167 3.657-8.167 8.167 0 4.51 3.657 8.167 8.167 8.167 4.51 0 8.167-3.657 8.167-8.167 0-4.51-3.657-8.167-8.167-8.167m0 13.222c-.644 0-1.167-.522-1.167-1.166 0-.644.523-1.167 1.167-1.167.644 0 1.167.523 1.167 1.167 0 .644-.523 1.166-1.167 1.166m0-3.84c-.644 0-1.167-.522-1.167-1.166v-3.938c0-.644.523-1.167 1.167-1.167.644 0 1.167.523 1.167 1.167v3.938c0 .644-.523 1.166-1.167 1.166"/>
  <path fill="#a0a0a0" d="m18 7h-2-1v-1-2-1-2-1h1 2 1v1 2h-1v-2h-2v2h2v1h-2v2h2v-2h1v2 1h-1m-9 0v-1h3v1h-3m-1-7h1v6h-1v-6m4 0h1v6h-1v-6m-9 5v2h-1v-2-1-3-1h1 2 1v1 3 1h-1-2m2-4h-2v3h2v-3"/>
 </g>
</svg>
