<svg xmlns="http://www.w3.org/2000/svg" width="30" height="26" viewBox="0 0 30 26">
 <g fill-rule="evenodd">
  <path fill="#168ee2" d="m15.923 0l-4.923 6 4.923 6h3.077l-4.308-6 4.308-6h-3.077"/>
  <path fill="#e7e7e7" d="m29 21v-2h1v2h-1m-1 3v-3h1v3h-1m-1 2v-2h1v2h-1m-1-5h1v3h-1v-3m-1 3h-1v-4h1v-1h1v2h-1v3m-2 2v-2h1v2h-1m-1-5h1v3h-1v-3m-1-2h1v2h-1v-2m-2 1h1v5h-1v-5m0 6h-4v-1h4v1m-5-1v-5h1v5h-1m1-6h4v1h-4v-1m-5 4h-3v3h-1v-3-1-3h1v3h3v-3h1v3 1 3h-1v-3m-10 3v-1h4v1h-4m4-2h1v1h-1v-1m-1-1h-1v-1h1 1v1 1h-1v-1m-2-2h1v1h-1v-1m-1-1h1v1h-1v-1m4-1v1h-3v-1h3"/>
 </g>
</svg>
