<svg xmlns="http://www.w3.org/2000/svg" width="21" height="35" viewBox="0 0 21 35">
 <g fill-rule="evenodd">
  <path fill="#12bc02" d="m10.51 35c-5.799 0-10.5-4.701-10.5-10.5 0-5.799 4.701-10.5 10.5-10.5 5.799 0 10.5 4.701 10.5 10.5 0 5.799-4.701 10.5-10.5 10.5m0-18.577c-4.461 0-8.077 3.616-8.077 8.077 0 4.461 3.616 8.077 8.077 8.077 4.461 0 8.077-3.616 8.077-8.077 0-4.461-3.616-8.077-8.077-8.077m-1.238 12.158c-.149.149-.391.149-.54 0l-.12-.12h-.001l-.127-.128-.562-.562c-.002-.002-.001-.005-.003-.007l-2.574-2.593c-.15-.149-.15-.391 0-.54l.809-.81c.15-.149.391-.149.541 0l2.31 2.327 4.856-4.856c.149-.15.391-.15.54 0l.81.809c.149.149.149.391 0 .54l-5.939 5.94"/>
  <path fill="#a0a0a0" d="m19 6v-5h1v5h-1m0 1h-4v-1h4v1m-5-1v-5h1v5h-1m1-6h4v1h-4v-1m-7 7v-1-2-1-2-1h1 3v1h-3v2h3v1h-3v2h3v1h-3-1m-7 0v-1h4v1h-4m4-2h1v1h-1v-1m-1-1h-1v-1h1 1v1 1h-1v-1m-2-2h1v1h-1v-1m-1-1h1v1h-1v-1m4-1v1h-3v-1h3"/>
 </g>
</svg>
