<svg xmlns="http://www.w3.org/2000/svg" width="20" height="16.938" viewBox="0 0 20 16.938">
 <g>
  <path d="m17.65 16.93l-.744-2.482h-2.777l-.672 2.482h-2.262l2.948-9.67h2.849l3.006 9.67h-2.348m-1.53-6.139c-.176-.59-.371-1.343-.532-1.919h-.049c-.144.591-.321 1.343-.483 1.919l-.66 2.11h2.401l-.677-2.11m-9.514.846l-.17-1.197c2.275-.326 3.364-1.197 3.759-3.004.126-.571.018-1.031-.33-1.402-.37-.397-.966-.659-1.627-.801-.534 1.21-1.452 2.968-2.66 4.209.008.029.015.067.023.089l-.156.055c-.438.428-.913.786-1.423 1.022-.86.399-1.732.428-2.589.086-1.375-.546-1.487-1.472-1.431-1.975.161-1.472 2.225-3.133 4.024-4.056-.018-.643-.032-1.272-.041-1.858-.025 0-.052.001-.077.001-1.436 0-2.534-.077-2.636-.084l.085-1.206c.025.002 1.154.079 2.612.078-.007-.791-.009-1.382-.009-1.586h1.2c0 .478.004 1.01.009 1.566 1.526-.051 3.173-.216 4.248-.632l.431 1.129c-1.225.474-3.025.655-4.662.711.007.452.017.912.029 1.367.246-.083.474-.145.673-.177.488-.077 1.036-.102 1.599-.062.101-.257.155-.415.158-.423l1.134.396c-.008.023-.034.099-.078.218.795.202 1.529.557 2.039 1.104.621.667.839 1.528.628 2.49-.502 2.295-2.015 3.547-4.762 3.942m-2.532-5.634c-1.379.803-2.786 2.003-2.88 2.85-.013.116-.047.428.679.717.549.217 1.087.199 1.648-.06.266-.123.521-.304.768-.508-.098-.771-.167-1.848-.215-2.999m2.885-.902c-.308 0-.609.023-.886.066-.233.037-.515.126-.819.249.032.897.073 1.732.124 2.424.661-.875 1.21-1.9 1.599-2.739h-.018" fill="#06273f"/>
  <path d="m17.746 16.93l-.714-2.369h-2.663l-.645 2.369h-2.169l2.827-9.23h2.733l2.883 9.23h-2.252m-1.467-5.86c-.17-.563-.356-1.282-.511-1.832h-.047c-.137.565-.308 1.282-.463 1.832l-.633 2.014h2.303l-.649-2.014m-9.126.807l-.163-1.142c2.182-.311 3.227-1.143 3.606-2.868.12-.545.017-.983-.316-1.338-.356-.379-.928-.628-1.561-.765-.513 1.156-1.393 2.833-2.552 4.018.008.028.015.064.023.085l-.15.053c-.421.408-.876.75-1.365.975-.825.381-1.661.409-2.484.082-1.318-.521-1.426-1.404-1.372-1.885.155-1.405 2.135-2.991 3.86-3.871-.018-.614-.031-1.215-.04-1.774-.024 0-.05.001-.073.001-1.378 0-2.431-.073-2.529-.08l.082-1.151c.024.001 1.106.075 2.505.075-.007-.756-.009-1.32-.009-1.515h1.152c0 .457.003.965.008 1.495 1.463-.049 3.043-.206 4.075-.603l.413 1.077c-1.175.452-2.901.626-4.472.679.007.432.016.87.028 1.305.236-.079.455-.139.646-.169.468-.073.994-.097 1.533-.059.097-.246.149-.396.152-.404l1.088.378c-.008.022-.033.095-.075.209.762.192 1.466.531 1.956 1.053.595.636.804 1.459.601 2.377-.481 2.191-1.932 3.385-4.567 3.762m-2.429-5.377c-1.321.766-2.672 1.911-2.761 2.72-.013.111-.046.409.65.684.527.208 1.044.19 1.581-.057.256-.117.5-.29.737-.484-.094-.736-.16-1.765-.207-2.863m2.768-.862c-.296 0-.585.023-.85.063-.224.036-.494.121-.785.238.03.857.069 1.654.119 2.315.634-.836 1.16-1.815 1.533-2.616h-.017" fill="#0f5b90"/>
 </g>
</svg>
