<svg xmlns="http://www.w3.org/2000/svg" width="19" height="18" viewBox="0 0 19 18"><path d="m9.246 12.316c-.173 0-.487 0-.638-.253l-3.542-3.707c-.318-.334-.318-.876 0-1.21.153-.16.358-.248.578-.248.22 0 .425.088.578.249l2.189 2.29v-8.564c0-.53.328-.873.835-.873.507 0 .835.343.835.873v8.409l2.04-2.136c.153-.16.359-.248.578-.248.22 0 .425.088.579.249.318.333.318.875 0 1.209l-3.482 3.644c-.005.046-.02.091-.043.131-.109.185-.34.185-.507.185m-7.514 5.684c-.957 0-1.732-.761-1.732-1.699v-3.993c0-.447.356-.829.812-.848.556-.024.92.315.92.848v3.992h15.535v-3.992c0-.447.358-.829.814-.848.556-.023.919.315.919.848v3.992c0 .939-.776 1.7-1.733 1.7h-15.535" fill="#979aa3" fill-rule="evenodd"/></svg>