<?xml version="1.0" encoding="utf-8"?>
<!-- Generator: Avocode 2.4.5 - http://avocode.com -->
<svg height="13" width="24" xmlns:xlink="http://www.w3.org/1999/xlink" xmlns="http://www.w3.org/2000/svg" viewBox="0 0 24 13">
    <path fill="#0d7ce7" fill-rule="evenodd" d="M 14.54 2 C 16.23 2 17.71 3.38 17.67 5.08 C 17.64 6.69 16.53 8 15.17 8 L 7.58 8 L 8.87 6.71 C 9.26 6.32 9.26 5.68 8.87 5.29 C 8.68 5.1 8.42 5 8.16 5 C 7.91 5 7.65 5.1 7.46 5.29 L 4.62 8.13 C 4.14 8.61 4.14 9.39 4.62 9.87 L 7.46 12.71 C 7.85 13.1 8.48 13.1 8.87 12.71 C 9.26 12.32 9.26 11.68 8.87 11.29 L 7.58 10 L 15.17 10 C 17.64 10 19.66 7.77 19.67 5.02 C 19.68 2.26 17.24 0 14.48 0 L 5 0 C 4.45 0 4 0.45 4 1 C 4 1.55 4.45 2 5 2 L 14.54 2 Z M 0 1 C 0 0.45 0.44 0 1 0 C 1.55 0 2 0.45 2 1 L 2 7 C 2 7.55 1.56 8 1 8 C 0.45 8 0 7.55 0 7 L 0 1 Z M 22 1 C 22 0.45 22.44 0 23 0 C 23.55 0 24 0.45 24 1 L 24 12 C 24 12.55 23.56 13 23 13 C 22.45 13 22 12.55 22 12 L 22 1 Z M 22 1" />
</svg>