<?xml version="1.0" encoding="utf-8"?>
<!-- Generator: Adobe Illustrator 19.1.0, SVG Export Plug-In . SVG Version: 6.00 Build 0)  -->
<svg version="1.1" id="Layer_1" xmlns="http://www.w3.org/2000/svg" xmlns:xlink="http://www.w3.org/1999/xlink" x="0px" y="0px"
	 width="16px" height="14px" viewBox="-297 390 16 14" style="enable-background:new -297 390 16 14;" xml:space="preserve">
<style type="text/css">
	.st0{fill:#303646;enable-background:new    ;}
</style>
<path class="st0" d="M-296.8,404c-0.1,0-0.1,0-0.2-0.1c0,0-0.1-0.1,0-0.1c1-6,6.3-10.4,12.7-10.4h0.1l-2.1-2
	c-0.2-0.2-0.2-0.4-0.2-0.6s0.1-0.4,0.2-0.6c0.2-0.1,0.4-0.2,0.6-0.2c0.2,0,0.4,0.1,0.6,0.2l3.9,3.9c0.1,0.1,0.1,0.2,0,0.3l-3.9,3.9
	c-0.2,0.2-0.4,0.2-0.6,0.2c-0.2,0-0.5-0.1-0.6-0.2c-0.2-0.1-0.2-0.4-0.2-0.6c0-0.2,0.1-0.4,0.2-0.6l2.1-2l-0.2,0
	c-5.4,0-10,3.7-10.9,8.8c0,0.1-0.1,0.2-0.2,0.2H-296.8z"/>
</svg>
