<svg height="11" width="20" xmlns="http://www.w3.org/2000/svg" viewBox="0 0 20 11"><path fill="#303646" fill-rule="evenodd" d="m0 10.82h1.86v-4.48h5.07v4.48h1.86v-10.64h-1.86v4.42h-5.07v-4.42h-1.86v10.64m15.27.18c2.23 0 3.94-1.5 3.94-3.62v-.03c0-2.12-1.65-3.34-3.7-3.34-1.14 0-1.93.43-2.55 1.08.03-1.46.7-3.39 2.55-3.39.94 0 1.56.35 2.3.93l1-1.44c-.92-.75-1.86-1.19-3.24-1.19-3 0-4.55 2.54-4.55 5.79v.03c0 2.14.49 3.25 1.29 4.06.71.71 1.65 1.12 2.96 1.12m-.05-1.63c-1.32 0-2.2-.82-2.2-1.89v-.04c0-1.01.84-1.86 2.16-1.86 1.32 0 2.16.79 2.16 1.85v.03c0 1.09-.8 1.91-2.12 1.91"/></svg>