<svg height="20" width="16" xmlns="http://www.w3.org/2000/svg" viewBox="0 0 16 20"><path fill="#303646" fill-rule="evenodd" d="m2 3c0-.55.45-1 1-1h8c.55 0 1 .45 1 1v3.03h2v-3.03c0-1.66-1.34-3-3-3h-8c-1.66 0-3 1.34-3 3v12c0 1.66 1.34 3 3 3h1.06v-2h-1.06c-.55 0-1-.45-1-1v-12m13 14.92c0 .55-.45.99-1 .99h-6c-.55 0-1-.44-1-.99v-7.93c0-.55.45-.99 1-.99h6c.55 0 1 .44 1 .99v7.93m-1-9.92h-6c-1.11 0-2 .89-2 1.99v7.93c0 1.1.89 1.99 2 1.99h6c1.11 0 2-.89 2-1.99v-7.93c0-1.1-.89-1.99-2-1.99m-.44 4.41c-.25 0-.39.15-.46.35l-.79 2.36-.8-2.36c-.07-.2-.24-.35-.48-.35h-.06c-.24 0-.41.15-.48.35l-.79 2.36-.79-2.36c-.07-.2-.22-.35-.45-.35-.28 0-.46.2-.46.41 0 .08.02.17.05.23l1.09 2.96c.1.27.29.4.52.4h.03c.22 0 .42-.13.5-.38l.81-2.32.79 2.32c.09.25.28.38.51.38h.03c.23 0 .42-.13.52-.4l1.11-2.99c.02-.04.04-.13.04-.2 0-.22-.19-.41-.44-.41"/></svg>