<svg height="17" width="17" xmlns="http://www.w3.org/2000/svg" viewBox="0 0 17 17"><path fill="#0d7ce7" fill-rule="evenodd" d="m4.61 17c-1.27 0-2.49-.51-3.28-1.35-.86-.86-1.33-1.99-1.33-3.23 0-1.29.48-2.45 1.36-3.25l1.91-1.9c.17-.17.41-.27.67-.27.25 0 .49.1.66.27.37.37.37.97 0 1.33l-1.92 1.91c-.53.53-.76 1.1-.76 1.91 0 .75.26 1.41.76 1.91.5.5 1.2.78 1.92.78.72 0 1.39-.28 1.86-.77l1.93-1.92c.17-.17.41-.27.66-.27.26 0 .5.1.67.27.37.37.37.97 0 1.33l-1.92 1.91c-.79.86-1.93 1.34-3.19 1.34m8.47-7c-.16 0-.54 0-.74-.3-.15-.18-.24-.39-.24-.63 0-.25.1-.49.28-.66l1.91-1.92c1.04-1.04 1.04-2.74 0-3.78-.5-.5-1.17-.78-1.88-.78-.72 0-1.39.28-1.89.78l-1.91 1.92c-.18.18-.42.27-.67.27-.25 0-.49-.09-.67-.27-.17-.18-.27-.42-.27-.67 0-.25.1-.49.27-.67l1.92-1.91c.89-.89 2.04-1.38 3.24-1.38 1.21 0 2.35.49 3.2 1.38.89.9 1.38 2.07 1.37 3.29-.01 1.19-.5 2.31-1.38 3.16l-1.91 1.91c-.26.26-.54.26-.63.26m-8.1 3c-.15 0-.54 0-.75-.31-.32-.37-.31-.95.05-1.3l7.09-7.11c.18-.18.42-.28.68-.28.25 0 .49.1.67.28.37.37.37.98 0 1.35l-7.09 7.11c-.05.04-.28.26-.65.26"/></svg>