<?xml version="1.0" encoding="utf-8"?>
<!-- Generator: Avocode 2.4.5 - http://avocode.com -->
<svg height="17" width="18" xmlns:xlink="http://www.w3.org/1999/xlink" xmlns="http://www.w3.org/2000/svg" viewBox="0 0 18 17">
    <path fill="#303646" fill-rule="evenodd" d="M 15.2 15 L 12 15 L 12 12 L 16 12 L 16 14.14 C 16 14.61 15.64 15 15.2 15 L 15.2 15 Z M 2 14.14 L 2 12 L 6 12 L 6 15 L 2.8 15 C 2.36 15 2 14.61 2 14.14 L 2 14.14 Z M 6 7 L 2 7 L 2 4.1 L 6 4.1 L 6 7 Z M 12 8 L 16 8 L 16 11 L 12 11 L 12 8 Z M 7 4.1 L 11 4.1 L 11 7 L 7 7 L 7 4.1 Z M 11 15 L 7 15 L 7 12 L 11 12 L 11 15 Z M 7 8 L 11 8 L 11 11 L 7 11 L 7 8 Z M 6 11 L 2 11 L 2 8 L 6 8 L 6 11 Z M 16 7 L 12 7 L 12 4.1 L 16 4.1 L 16 7 Z M 15.2 0 L 2.8 0 C 1.25 0 0 1.28 0 2.86 L 0 14.14 C 0 15.72 1.25 17 2.8 17 L 15.2 17 C 16.75 17 18 15.72 18 14.14 L 18 2.86 C 18 1.28 16.75 0 15.2 0 L 15.2 0 Z M 15.2 0" />
</svg>