<?xml version="1.0" encoding="utf-8"?>
<!-- Generator: Adobe Illustrator 19.1.0, SVG Export Plug-In . SVG Version: 6.00 Build 0)  -->
<svg version="1.1" id="Layer_1" xmlns="http://www.w3.org/2000/svg" xmlns:xlink="http://www.w3.org/1999/xlink" x="0px" y="0px"
	 width="23px" height="16.5px" viewBox="-294 388.5 23 16.5" style="enable-background:new -294 388.5 23 16.5;"
	 xml:space="preserve">
<style type="text/css">
	.st0{fill:none;stroke:#303646;stroke-linecap:round;}
	.st1{fill:#303646;}
</style>
<path class="st0" d="M-280.1,389l-4.9,15.5"/>
<path class="st1" d="M-288,403c-0.3,0-0.5-0.1-0.7-0.3l-4.5-4.3c-0.5-0.5-0.8-1.2-0.8-1.9c0-0.7,0.3-1.3,0.8-2c0,0,0,0,0.1-0.1
	l4.5-4.3c0.2-0.2,0.4-0.3,0.7-0.3s0.5,0.1,0.7,0.3c0.2,0.2,0.3,0.4,0.3,0.6c0,0.2-0.1,0.5-0.3,0.6l-4.4,4.3c-0.4,0.4-0.4,0.9,0,1.3
	l4.4,4.3c0.4,0.3,0.4,0.9,0,1.3C-287.5,402.9-287.7,403-288,403"/>
<path class="st1" d="M-277,403c-0.3,0-0.5-0.1-0.7-0.3c-0.4-0.4-0.4-0.9,0-1.3l4.4-4.3c0.4-0.4,0.4-0.9,0-1.3l-4.4-4.3
	c-0.2-0.2-0.3-0.4-0.3-0.6c0-0.2,0.1-0.5,0.3-0.6c0.2-0.2,0.4-0.3,0.7-0.3s0.5,0.1,0.7,0.3l4.5,4.3c0,0,0,0,0.1,0.1
	c0.5,0.6,0.8,1.3,0.8,2c0,0.7-0.3,1.4-0.8,1.9l-4.5,4.3C-276.5,402.9-276.8,403-277,403"/>
</svg>
