<?xml version="1.0" encoding="utf-8"?>
<!-- Generator: Adobe Illustrator 19.1.0, SVG Export Plug-In . SVG Version: 6.00 Build 0)  -->
<svg version="1.1" id="Layer_1" xmlns="http://www.w3.org/2000/svg" xmlns:xlink="http://www.w3.org/1999/xlink" x="0px" y="0px"
	 width="18px" height="14px" viewBox="-296 390 18 14" style="enable-background:new -296 390 18 14;" xml:space="preserve">
<style type="text/css">
	.st0{fill:#0d7ce7;enable-background:new    ;}
</style>
<path class="st0" d="M-291,391c0-0.5,0.5-1,1-1h7c0.5,0,1,0.4,1,1c0,0.5-0.5,1-1,1h-7C-290.5,392-291,391.6-291,391z M-296,397
	c0-0.5,0.4-1,1-1h16c0.5,0,1,0.4,1,1c0,0.5-0.4,1-1,1h-16C-295.6,398-296,397.6-296,397z M-294,403c0-0.5,0.5-1,1-1h12
	c0.6,0,1,0.4,1,1c0,0.5-0.5,1-1,1h-12C-293.5,404-294,403.6-294,403z"/>
</svg>
