<svg height="20" width="17" xmlns="http://www.w3.org/2000/svg" viewBox="0 0 17 20"><path fill="#303646" fill-rule="evenodd" d="m15 17c0 .55-.45 1-1 1h-11c-.55 0-1-.44-1-1v-14c0-.55.45-1 1-1h11c.55 0 1 .44 1 1v14m-1-17h-11c-1.65 0-3 1.35-3 3v14c0 1.65 1.35 3 3 3h11c1.65 0 3-1.35 3-3v-14c0-1.65-1.35-3-3-3m-10 6c0-.55.45-1 1-1h7c.55 0 1 .44 1 1 0 .55-.45 1-1 1h-7c-.55 0-1-.44-1-1m0 4c0-.55.45-1 1-1h7c.55 0 1 .44 1 1 0 .55-.45 1-1 1h-7c-.55 0-1-.44-1-1m0 4c0-.55.45-1 1-1h7c.55 0 1 .44 1 1 0 .55-.45 1-1 1h-7c-.55 0-1-.44-1-1"/></svg>