<?xml version="1.0" encoding="utf-8"?>
<!-- Generator: Avocode 2.4.5 - http://avocode.com -->
<svg height="15" width="15" xmlns:xlink="http://www.w3.org/1999/xlink" xmlns="http://www.w3.org/2000/svg" viewBox="0 0 15 15">
    <path fill="#303646" fill-rule="evenodd" d="M 5.37 6.03 C 5.19 6.03 5.01 5.96 4.89 5.83 L 1.37 2.34 L 1.38 3.98 C 1.38 4.13 1.33 4.28 1.22 4.39 C 1.12 4.49 0.98 4.55 0.84 4.55 L 0.58 4.55 C 0.26 4.54 0.02 4.32 0.02 4.03 L 0.01 0.74 C 0.01 0.72 0.01 0.7 0.01 0.68 L 0 0.59 C 0 0.36 0.08 0.24 0.15 0.17 C 0.25 0.07 0.38 0.01 0.53 0.01 L 0.71 0.01 L 3.98 0 C 4.29 0.01 4.54 0.26 4.55 0.56 L 4.55 0.8 C 4.51 1.14 4.26 1.37 3.95 1.37 L 2.35 1.37 L 5.85 4.86 C 5.98 4.99 6.05 5.16 6.05 5.35 C 6.05 5.53 5.98 5.7 5.85 5.83 C 5.72 5.96 5.55 6.03 5.37 6.03 L 5.37 6.03 Z M 9.65 6.03 C 9.46 6.03 9.29 5.96 9.16 5.83 C 9.04 5.7 8.97 5.53 8.97 5.35 C 8.97 5.16 9.04 4.99 9.16 4.86 L 12.67 1.37 L 11.07 1.37 C 10.76 1.37 10.5 1.14 10.46 0.83 L 10.46 0.57 C 10.47 0.26 10.72 0.01 11.02 0 L 14.29 0.01 C 14.29 0.01 14.46 0.01 14.46 0.01 C 14.62 0.01 14.75 0.07 14.85 0.17 C 14.92 0.24 15 0.36 15 0.57 L 14.99 0.69 C 14.99 0.7 14.99 0.72 14.99 0.74 L 14.98 4.03 C 14.98 4.32 14.74 4.54 14.42 4.55 C 14.42 4.55 14.19 4.55 14.19 4.55 C 14.03 4.55 13.9 4.49 13.79 4.39 C 13.69 4.28 13.63 4.13 13.63 3.98 L 13.64 2.33 L 10.13 5.83 C 10 5.96 9.83 6.03 9.65 6.03 L 9.65 6.03 Z M 0.7 14.99 L 0.54 14.99 C 0.38 14.99 0.25 14.93 0.15 14.83 C 0.08 14.76 0 14.64 0 14.43 L 0.01 14.31 C 0.01 14.29 0 14.27 0.01 14.24 L 0.02 10.98 C 0.02 10.68 0.26 10.46 0.58 10.45 L 0.83 10.45 C 0.98 10.45 1.12 10.51 1.22 10.61 C 1.33 10.72 1.38 10.87 1.38 11.02 L 1.37 12.66 L 4.89 9.17 C 5.01 9.04 5.19 8.97 5.37 8.97 C 5.55 8.97 5.72 9.04 5.85 9.17 C 5.98 9.3 6.05 9.47 6.05 9.65 C 6.05 9.84 5.98 10.01 5.85 10.14 L 2.35 13.63 L 3.94 13.63 C 4.26 13.63 4.51 13.86 4.55 14.17 L 4.55 14.43 C 4.54 14.74 4.29 14.99 3.99 15 L 3.98 15 C 3.98 15 0.71 14.99 0.7 14.99 L 0.7 14.99 Z M 11.02 15 C 10.72 14.99 10.47 14.74 10.46 14.44 L 10.46 14.2 C 10.5 13.86 10.76 13.63 11.06 13.63 L 12.67 13.63 L 9.17 10.14 C 9.04 10.01 8.97 9.84 8.97 9.65 C 8.97 9.47 9.04 9.3 9.16 9.17 C 9.29 9.04 9.46 8.97 9.65 8.97 C 9.83 8.97 10 9.04 10.13 9.17 L 13.64 12.67 L 13.63 11.02 C 13.63 10.87 13.69 10.72 13.79 10.61 C 13.9 10.51 14.03 10.45 14.18 10.45 L 14.42 10.45 C 14.74 10.46 14.98 10.68 14.98 10.97 L 14.99 14.26 C 14.99 14.28 14.99 14.3 14.99 14.32 L 15 14.41 C 15 14.64 14.92 14.76 14.85 14.83 C 14.75 14.93 14.61 14.99 14.47 14.99 C 14.47 14.99 14.28 14.99 14.27 14.99 C 14.27 14.99 11.03 15 11.03 15 L 11.02 15 Z M 11.02 15" />
</svg>