<?xml version="1.0" encoding="utf-8"?>
<!-- Generator: Avocode 2.4.5 - http://avocode.com -->
<svg height="17" width="17" xmlns:xlink="http://www.w3.org/1999/xlink" xmlns="http://www.w3.org/2000/svg" viewBox="0 0 17 17">
    <path fill="#0d7ce7" fill-rule="evenodd" d="M 4.61 17 C 3.34 17 2.12 16.49 1.33 15.65 C 0.47 14.79 0 13.66 0 12.42 C 0 11.13 0.48 9.97 1.36 9.17 L 3.27 7.27 C 3.44 7.1 3.68 7 3.94 7 C 4.19 7 4.43 7.1 4.6 7.27 C 4.97 7.64 4.97 8.24 4.6 8.6 L 2.68 10.51 C 2.15 11.04 1.92 11.61 1.92 12.42 C 1.92 13.17 2.18 13.83 2.68 14.33 C 3.18 14.83 3.88 15.11 4.6 15.11 C 5.32 15.11 5.99 14.83 6.46 14.34 L 8.39 12.42 C 8.56 12.25 8.8 12.15 9.05 12.15 C 9.31 12.15 9.55 12.25 9.72 12.42 C 10.09 12.79 10.09 13.39 9.72 13.75 L 7.8 15.66 C 7.01 16.52 5.87 17 4.61 17 Z M 13.08 10 C 12.92 10 12.54 10 12.34 9.7 C 12.19 9.52 12.1 9.31 12.1 9.07 C 12.1 8.82 12.2 8.58 12.38 8.41 L 14.29 6.49 C 15.33 5.45 15.33 3.75 14.29 2.71 C 13.79 2.21 13.12 1.93 12.41 1.93 C 11.69 1.93 11.02 2.21 10.52 2.71 L 8.61 4.63 C 8.43 4.81 8.19 4.9 7.94 4.9 C 7.69 4.9 7.45 4.81 7.27 4.63 C 7.1 4.45 7 4.21 7 3.96 C 7 3.71 7.1 3.47 7.27 3.29 L 9.19 1.38 C 10.08 0.49 11.23 0 12.43 0 C 13.64 0 14.78 0.49 15.63 1.38 C 16.52 2.28 17.01 3.45 17 4.67 C 16.99 5.86 16.5 6.98 15.62 7.83 L 13.71 9.74 C 13.45 10 13.17 10 13.08 10 Z M 4.98 13 C 4.83 13 4.44 13 4.23 12.69 C 3.91 12.32 3.92 11.74 4.28 11.39 L 11.37 4.28 C 11.55 4.1 11.79 4 12.05 4 C 12.3 4 12.54 4.1 12.72 4.28 C 13.09 4.65 13.09 5.26 12.72 5.63 L 5.63 12.74 C 5.58 12.78 5.35 13 4.98 13 Z M 4.98 13" />
</svg>