<?xml version="1.0" encoding="utf-8"?>
<!-- Generator: Adobe Illustrator 19.1.0, SVG Export Plug-In . SVG Version: 6.00 Build 0)  -->
<svg version="1.1" id="Layer_1" xmlns="http://www.w3.org/2000/svg" xmlns:xlink="http://www.w3.org/1999/xlink" x="0px" y="0px"
	 width="18px" height="14px" viewBox="-592 780 18 14" style="enable-background:new -592 780 18 14;" xml:space="preserve">
<style type="text/css">
	.st0{fill:#303646;}
</style>
<path class="st0" d="M-575,782h-7c-0.5,0-1-0.5-1-1c0-0.6,0.5-1,1-1h7c0.5,0,1,0.5,1,1C-574,781.6-574.5,782-575,782z M-575,788h-16
	c-0.6,0-1-0.5-1-1c0-0.6,0.5-1,1-1h16c0.6,0,1,0.5,1,1C-574,787.6-574.4,788-575,788z M-575,794h-12c-0.5,0-1-0.5-1-1
	c0-0.6,0.4-1,1-1h12c0.5,0,1,0.5,1,1C-574,793.6-574.5,794-575,794z"/>
</svg>
