<?xml version="1.0" encoding="utf-8"?>
<!-- Generator: Adobe Illustrator 19.1.0, SVG Export Plug-In . SVG Version: 6.00 Build 0)  -->
<!DOCTYPE svg PUBLIC "-//W3C//DTD SVG 1.1//EN" "http://www.w3.org/Graphics/SVG/1.1/DTD/svg11.dtd">
<svg version="1.1" id="Layer_1" xmlns="http://www.w3.org/2000/svg" xmlns:xlink="http://www.w3.org/1999/xlink" x="0px" y="0px"
	 width="10px" height="16px" viewBox="0 0 10 16" style="enable-background:new 0 0 10 16;" xml:space="preserve">
<style type="text/css">
	.st0{fill:#313746;}
</style>
<g>
	<path class="st0" d="M7.9,0v6.8c0,2.2-1.1,3.3-2.9,3.3c-1.8,0-3-1.2-3-3.4V0H0v6.8C0,10.2,1.9,12,5,12c3.1,0,5-1.8,5-5.3V0H7.9z"/>
	<path class="st0" d="M9,14H1c-0.5,0-1,0.4-1,1c0,0.6,0.4,1,1,1h8c0.5,0,1-0.4,1-1C10,14.4,9.6,14,9,14z"/>
</g>
</svg>
