<svg height="15" width="13" xmlns="http://www.w3.org/2000/svg" viewBox="0 0 13 15"><path fill="#303646" fill-rule="evenodd" d="m9.52 13.09c.08.21.2.32.41.41.11.04.21.06.31.06.1 0 .18-.02.25-.05l.31-.13c.29-.11.49-.3.6-.57.1-.27.1-.58-.02-.87l-.62-1.46c-.17-.33-.29-.5-.56-.57-.18-.09-.32-.12-.45-.12-.13 0-.25.03-.35.09l-1.03.46 1.15 2.75m-6.36-3.23c-.16 0-.28 0-.44.08-.35.18-.52.3-.6.56l-.64 1.5c-.23.6.01 1.17.6 1.44l.27.11c.09.03.2.04.3.04.31 0 .55-.15.71-.47l1.14-2.72-.9-.43c-.1-.01-.19-.04-.27-.07-.07-.02-.13-.04-.17-.04m4.92 3.79l-1.57-3.79-1.55 3.72c-.01.02-.02.04-.03.06-.67.93-1.38 1.36-2.23 1.36-.22 0-.39-.05-.54-.1-.07-.03-.16-.06-.25-.08l-.34-.12c-.62-.24-1.11-.7-1.37-1.32-.27-.64-.27-1.39.02-2.05l.63-1.47c.28-.55.66-1.13 1.44-1.34.26-.14.61-.23.95-.23.34 0 .67.09.97.25l.96.44.49-1.16-3.22-6.73c-.24-.59.24-.88.4-.97.15-.07.25-.09.35-.09.35 0 .55.27.67.47l2.65 5.3 2.65-5.32c.13-.31.38-.48.71-.48.07 0 .15.01.24.03.27.1.63.34.51.95l-3.26 6.84.51 1.21.98-.44c.31-.16.66-.24 1-.24.34 0 .67.09.97.25.48.24 1.09.61 1.38 1.33l.62 1.46c.5 1.29-.06 2.69-1.33 3.35l-.31.13c-.03.01-.07.02-.1.02-.26 0-.45.04-.61.07-.12.02-.22.04-.3.04-.87 0-1.71-.54-2.09-1.35"/></svg>