<svg height="17" width="19" xmlns="http://www.w3.org/2000/svg" viewBox="0 0 19 17"><path fill="#303646" fill-rule="evenodd" d="m7 3c0-.55.46-1 1-1h10c.55 0 1 .44 1 1 0 .55-.46 1-1 1h-10c-.55 0-1-.44-1-1m0 11c0-.55.46-1 1-1h10c.55 0 1 .44 1 1 0 .55-.46 1-1 1h-10c-.55 0-1-.44-1-1m-7 1.97l1.97-1.62c.73-.6 1.02-.92 1.02-1.42 0-.49-.33-.76-.79-.76-.46 0-.77.25-1.21.79l-.91-.73c.58-.8 1.15-1.23 2.2-1.23 1.23 0 2.04.72 2.04 1.83 0 1-.51 1.49-1.56 2.3l-.96.75h2.58v1.12h-4.38v-1.03m2.75-15.97l-1.75.52.28 1.1 1.06-.26v4.79h1.33v-6.15h-.92"/></svg>