<?xml version="1.0" encoding="utf-8"?>
<!-- Generator: Avocode 2.4.5 - http://avocode.com -->
<svg height="14" width="13" xmlns:xlink="http://www.w3.org/1999/xlink" xmlns="http://www.w3.org/2000/svg" viewBox="0 0 13 14">
    <path fill="#303646" fill-rule="evenodd" d="M 3.05 7 L 0 7 L 0 9 L 8.24 9 C 8.62 9.31 8.73 9.67 8.73 10.13 L 8.73 10.17 C 8.73 11.18 7.84 11.88 6.44 11.88 C 4.86 11.88 3.6 11.24 2.37 10.11 L 1 11.82 C 2.55 13.28 4.41 14 6.39 14 C 9.1 14 11 12.48 11 9.94 L 11 9.9 C 11 9.57 10.97 9.28 10.91 9 L 13 9 L 13 7 L 9.55 7 C 8.88 6.54 7.99 6.2 6.87 5.91 C 4.38 5.29 3.79 4.82 3.79 3.77 L 3.79 3.73 C 3.79 2.84 4.56 2.12 5.89 2.12 C 7.07 2.12 8.23 2.61 9.39 3.52 L 10.61 1.71 C 9.3 0.6 7.81 0 5.93 0 C 3.36 0 1.52 1.61 1.52 3.95 L 1.52 3.99 C 1.52 5.46 2.05 6.36 3.05 7 Z M 3.05 7" />
</svg>