<svg xmlns="http://www.w3.org/2000/svg" width="20" height="20" viewBox="0 0 20 20"><path d="m19 11.02h-3v2.998c0 .548-.443.993-1 .993-.552 0-1-.455-1-.993v-2.998h-3c-.55 0-.996-.443-.996-.997 0-.551.456-.998.996-.998h3v-2.998c0-.548.444-.993 1-.993.553 0 1 .455 1 .993v2.998h3c.55 0 .995.443.995.998 0 .55-.455.997-.995.997m-5.01-10.02h-1.286v-.998h1.288c.478.001.941.171 1.302.479l-.658.765c-.176-.148-.396-.246-.646-.246m-5.357-.951h2v.998h-2v-.998m-3.929 18.955h2v.998h-2v-.998m-.271-18.955h2v.998h-2v-.998m-4.362 18.505l.98-.278c.119.417.492.728.953.728h.7v.998h-.7c-.895 0-1.689-.596-1.933-1.448m.926-16.516v.003l-1-.003c0-1.097.9-1.989 2.01-1.989h.429v.998h-.429c-.557 0-1.01.443-1.01.991m0 3.677h-1v-1.996h1v1.996m0 3.591h-1v-1.995h1v1.995m0 3.392h-1v-1.995h1v1.995m0 3.991h-1v-1.996h1v1.996m9.907 3.313h-2v-.998h2v.998m3.732-1.244l.658.765c-.361.308-.824.478-1.302.479h-1.288v-.998h1.286c.25 0 .47-.099.646-.246" fill="#303646" fill-rule="evenodd"/></svg>