<svg xmlns="http://www.w3.org/2000/svg" width="14" height="11" viewBox="0 0 14 11" enable-background="new 0 0 14 11">
 <path fill="#484748" d="m3 0c-1.65 0-3 1.35-3 3v1c0 1.65 1.35 3 3 3h3l.69-.69-.53-.56.66-.72 1-1.03h-4.32c-.28 0-.5-.22-.5-.5 0-.28.22-.5.5-.5h7c.28 0 .5.22.5.5 0 .28-.22.5-.5.5h-1.19l1 1h.69c.04 0 .06-.03.09-.03l.88-.88c0-.03.03-.05.03-.09v-1c0-.55-.45-1-1-1h-3v-1h3c1.09 0 2 .91 2 2v.44l.53.53.44.44c.02-.14.03-.27.03-.41v-1c0-1.65-1.35-3-3-3h-3l-1 1-1-1h-3m0 1h3v1h-3c-.55 0-1 .45-1 1v1c0 .55.45 1 1 1h3v1h-3c-1.09 0-2-.91-2-2v-1c0-1.09.91-2 2-2"/>
 <g>
  <path fill="#484748" d="m8.56 4.67l-1.02 1.06 2.09 2.08-2.09 2.13 1.02 1.06 2.13-2.12 2.12 2.12 1.03-1.06-2.09-2.13 2.09-2.08-1.03-1.06-2.12 2.12z"/>
 </g>
</svg>
