<svg xmlns="http://www.w3.org/2000/svg" width="16" height="16" viewBox="-297 389 16 16" enable-background="new -297 389 16 16"><path d="m-292.9 405c-1.1 0-2.2-.5-2.9-1.2-.8-.8-1.2-1.8-1.2-2.9 0-1.2.4-2.2 1.2-2.9l1.7-1.7c.2-.2.4-.2.6-.2.2 0 .4.1.6.2.3.3.3.9 0 1.2l-1.7 1.7c-.5.5-.7 1-.7 1.7 0 .7.2 1.3.7 1.7.4.4 1.1.7 1.7.7.6 0 1.2-.2 1.7-.7l1.7-1.7c.2-.2.4-.2.6-.2.2 0 .4.1.6.2.3.3.3.9 0 1.2l-1.7 1.7c-.7.8-1.7 1.2-2.9 1.2m8.4-7c-.1 0-.5 0-.7-.3-.1-.2-.2-.4-.2-.6 0-.2.1-.5.2-.6l1.7-1.7c.9-.9.9-2.5 0-3.4-.5-.5-1-.7-1.7-.7-.6 0-1.2.2-1.7.7l-1.7 1.7c-.2.2-.4.2-.6.2-.2 0-.4-.1-.6-.2-.2-.2-.2-.4-.2-.6 0-.2.1-.4.2-.6l1.7-1.7c.8-.8 1.8-1.2 2.9-1.2 1.1 0 2.1.4 2.9 1.2.8.8 1.2 1.9 1.2 3 0 1.1-.5 2.1-1.2 2.8l-1.7 1.7c-.2.3-.5.3-.5.3" fill="#303646"/></svg>