<svg height="14" width="16" xmlns="http://www.w3.org/2000/svg" viewBox="0 0 16 14"><path fill="#303646" fill-rule="evenodd" d="m15.8 14c.06 0 .11-.02.15-.07.04-.04.06-.1.05-.15-1-6.01-6.34-10.37-12.71-10.37h-.14l2.08-1.99c.16-.16.25-.37.25-.59 0-.22-.09-.43-.25-.59-.17-.15-.39-.24-.62-.24-.23 0-.45.09-.61.24l-3.94 3.87c-.08.08-.08.2 0 .27l3.94 3.87c.16.16.38.25.61.25.23 0 .45-.09.62-.25.16-.15.25-.36.25-.58 0-.23-.09-.43-.25-.59l-2.11-2.01.2-.01c5.4 0 10 3.7 10.94 8.78.01.09.1.16.19.16h1.35"/></svg>