<?xml version="1.0" encoding="utf-8"?>
<!-- Generator: Avocode 2.4.5 - http://avocode.com -->
<svg height="14" width="25" xmlns:xlink="http://www.w3.org/1999/xlink" xmlns="http://www.w3.org/2000/svg" viewBox="0 0 25 14">
    <path fill="#303646" fill-rule="evenodd" d="M 19 6 L 16 6 C 15.46 6 15 6.45 15 7 C 15 7.56 15.45 8 16 8 L 19 8 L 19 11 C 19 11.54 19.45 12 20 12 C 20.56 12 21 11.55 21 11 L 21 8 L 24 8 C 24.54 8 25 7.55 25 7 C 25 6.44 24.55 6 24 6 L 21 6 L 21 3 C 21 2.46 20.55 2 20 2 C 19.44 2 19 2.45 19 3 L 19 6 Z M 0 1 C 0 0.45 0.46 0 1 0 L 11 0 C 11.55 0 12 0.44 12 1 C 12 1.55 11.54 2 11 2 L 1 2 C 0.45 2 0 1.56 0 1 Z M 0 7 C 0 6.45 0.46 6 1 6 L 11 6 C 11.55 6 12 6.44 12 7 C 12 7.55 11.54 8 11 8 L 1 8 C 0.45 8 0 7.56 0 7 Z M 0 13 C 0 12.45 0.46 12 1 12 L 11 12 C 11.55 12 12 12.44 12 13 C 12 13.55 11.54 14 11 14 L 1 14 C 0.45 14 0 13.56 0 13 Z M 0 13" />
</svg>