<?xml version="1.0" encoding="utf-8"?>
<!-- Generator: Avocode 2.4.5 - http://avocode.com -->
<svg height="20" width="16" xmlns:xlink="http://www.w3.org/1999/xlink" xmlns="http://www.w3.org/2000/svg" viewBox="0 0 16 20">
    <path fill="#303646" fill-rule="evenodd" d="M 2 3 C 2 2.45 2.45 2 3 2 L 11 2 C 11.55 2 12 2.45 12 3 L 12 6.03 L 14 6.03 L 14 3 C 14 1.34 12.66 0 11 0 L 3 0 C 1.34 0 0 1.34 0 3 L 0 15 C 0 16.66 1.34 18 3 18 L 4.06 18 L 4.06 16 L 3 16 C 2.45 16 2 15.55 2 15 L 2 3 Z M 15 17.92 C 15 18.47 14.55 18.91 14 18.91 L 8 18.91 C 7.45 18.91 7 18.47 7 17.92 L 7 9.99 C 7 9.44 7.45 9 8 9 L 14 9 C 14.55 9 15 9.44 15 9.99 L 15 17.92 Z M 14 8 L 8 8 C 6.89 8 6 8.89 6 9.99 L 6 17.92 C 6 19.02 6.89 19.91 8 19.91 L 14 19.91 C 15.11 19.91 16 19.02 16 17.92 L 16 9.99 C 16 8.89 15.11 8 14 8 L 14 8 Z M 13.56 12.41 C 13.31 12.41 13.17 12.56 13.1 12.76 L 12.31 15.12 L 11.51 12.76 C 11.44 12.56 11.27 12.41 11.03 12.41 L 10.97 12.41 C 10.73 12.41 10.56 12.56 10.49 12.76 L 9.7 15.12 L 8.91 12.76 C 8.84 12.56 8.69 12.41 8.46 12.41 C 8.18 12.41 8 12.61 8 12.82 C 8 12.9 8.02 12.99 8.05 13.05 L 9.14 16.01 C 9.24 16.28 9.43 16.41 9.66 16.41 L 9.69 16.41 C 9.91 16.41 10.11 16.28 10.19 16.03 L 11 13.71 L 11.79 16.03 C 11.88 16.28 12.07 16.41 12.3 16.41 L 12.33 16.41 C 12.56 16.41 12.75 16.28 12.85 16.01 L 13.96 13.02 C 13.98 12.98 14 12.89 14 12.82 C 14 12.6 13.81 12.41 13.56 12.41" />
</svg>