<svg height="14" width="25" xmlns="http://www.w3.org/2000/svg" viewBox="0 0 25 14"><path fill="#303646" fill-rule="evenodd" d="m19 6h-3c-.54 0-1 .45-1 1 0 .56.45 1 1 1h3v3c0 .54.45 1 1 1 .56 0 1-.45 1-1v-3h3c.54 0 1-.45 1-1 0-.56-.45-1-1-1h-3v-3c0-.54-.45-1-1-1-.56 0-1 .45-1 1v3m-19-5c0-.55.46-1 1-1h10c.55 0 1 .44 1 1 0 .55-.46 1-1 1h-10c-.55 0-1-.44-1-1m0 6c0-.55.46-1 1-1h10c.55 0 1 .44 1 1 0 .55-.46 1-1 1h-10c-.55 0-1-.44-1-1m0 6c0-.55.46-1 1-1h10c.55 0 1 .44 1 1 0 .55-.46 1-1 1h-10c-.55 0-1-.44-1-1"/></svg>