<?xml version="1.0" encoding="utf-8"?>
<!-- Generator: Avocode 2.4.5 - http://avocode.com -->
<svg height="15" width="13" xmlns:xlink="http://www.w3.org/1999/xlink" xmlns="http://www.w3.org/2000/svg" viewBox="0 0 13 15">
    <path fill="#303646" fill-rule="evenodd" d="M 9.52 13.09 C 9.6 13.3 9.72 13.41 9.93 13.5 C 10.04 13.54 10.14 13.56 10.24 13.56 C 10.34 13.56 10.42 13.54 10.49 13.51 L 10.8 13.38 C 11.09 13.27 11.29 13.08 11.4 12.81 C 11.5 12.54 11.5 12.23 11.38 11.94 L 10.76 10.48 C 10.59 10.15 10.47 9.98 10.2 9.91 C 10.02 9.82 9.88 9.79 9.75 9.79 C 9.62 9.79 9.5 9.82 9.4 9.88 L 8.37 10.34 L 9.52 13.09 Z M 3.16 9.86 C 3 9.86 2.88 9.86 2.72 9.94 C 2.37 10.12 2.2 10.24 2.12 10.5 L 1.48 12 C 1.25 12.6 1.49 13.17 2.08 13.44 L 2.35 13.55 C 2.44 13.58 2.55 13.59 2.65 13.59 C 2.96 13.59 3.2 13.44 3.36 13.12 L 4.5 10.4 L 3.6 9.97 C 3.5 9.96 3.41 9.93 3.33 9.9 C 3.26 9.88 3.2 9.86 3.16 9.86 L 3.16 9.86 Z M 8.08 13.65 L 6.51 9.86 L 4.96 13.58 C 4.95 13.6 4.94 13.62 4.93 13.64 C 4.26 14.57 3.55 15 2.7 15 C 2.48 15 2.31 14.95 2.16 14.9 C 2.09 14.87 2 14.84 1.91 14.82 L 1.57 14.7 C 0.95 14.46 0.46 14 0.2 13.38 C -0.07 12.74 -0.07 11.99 0.22 11.33 L 0.85 9.86 C 1.13 9.31 1.51 8.73 2.29 8.52 C 2.55 8.38 2.9 8.29 3.24 8.29 C 3.58 8.29 3.91 8.38 4.21 8.54 L 5.17 8.98 L 5.66 7.82 L 2.44 1.09 C 2.2 0.5 2.68 0.21 2.84 0.12 C 2.99 0.05 3.09 0.03 3.19 0.03 C 3.54 0.03 3.74 0.3 3.86 0.5 L 6.51 5.8 L 9.16 0.48 C 9.29 0.17 9.54 0 9.87 0 C 9.94 0 10.02 0.01 10.11 0.03 C 10.38 0.13 10.74 0.37 10.62 0.98 L 7.36 7.82 L 7.87 9.03 L 8.85 8.59 C 9.16 8.43 9.51 8.35 9.85 8.35 C 10.19 8.35 10.52 8.44 10.82 8.6 C 11.3 8.84 11.91 9.21 12.2 9.93 L 12.82 11.39 C 13.32 12.68 12.76 14.08 11.49 14.74 L 11.18 14.87 C 11.15 14.88 11.11 14.89 11.08 14.89 C 10.82 14.89 10.63 14.93 10.47 14.96 C 10.35 14.98 10.25 15 10.17 15 C 9.3 15 8.46 14.46 8.08 13.65 Z M 8.08 13.65" />
</svg>