<?xml version="1.0" encoding="utf-8"?>
<!-- Generator: Avocode 2.4.5 - http://avocode.com -->
<svg height="16" width="10" xmlns:xlink="http://www.w3.org/1999/xlink" xmlns="http://www.w3.org/2000/svg" viewBox="0 0 10 16">
    <path fill="#303646" fill-rule="evenodd" d="M 0 0 L 2.05 0 L 2.05 6.72 C 2.05 8.91 3.17 10.08 5.01 10.08 C 6.83 10.08 7.95 8.98 7.95 6.8 L 7.95 0 L 10 0 L 10 6.7 C 10 10.23 8.03 12 4.98 12 C 1.94 12 0 10.23 0 6.8 L 0 0 Z M 0 15 C 0 14.45 0.46 14 1 14 L 9 14 C 9.55 14 10 14.44 10 15 C 10 15.55 9.54 16 9 16 L 1 16 C 0.45 16 0 15.56 0 15 Z M 0 15" />
</svg>