<?xml version="1.0" encoding="utf-8"?>
<!-- Generator: Adobe Illustrator 19.1.0, SVG Export Plug-In . SVG Version: 6.00 Build 0)  -->
<!DOCTYPE svg PUBLIC "-//W3C//DTD SVG 1.1//EN" "http://www.w3.org/Graphics/SVG/1.1/DTD/svg11.dtd">
<svg version="1.1" id="Layer_1" xmlns="http://www.w3.org/2000/svg" xmlns:xlink="http://www.w3.org/1999/xlink" x="0px" y="0px"
	 width="11px" height="16px" viewBox="0 0 11 16" style="enable-background:new 0 0 11 16;" xml:space="preserve">
<style type="text/css">
	.st0{fill:#313746;}
</style>
<path class="st0" d="M8.4,6.2c1-0.5,1.9-1.3,1.9-2.9v0c0-0.9-0.3-1.6-0.9-2.2C8.6,0.4,7.4,0,5.9,0H0v13h6.1c2.9,0,4.9-1.2,4.9-3.6v0
	C11,7.6,9.9,6.8,8.4,6.2z M2.3,2h3.3c1.5,0,2.3,0.6,2.3,1.7v0c0,1.2-1,1.8-2.5,1.8H2.3V2z M8.7,9.2c0,1.2-1,1.8-2.5,1.8H2.3V7.4H6
	C7.8,7.4,8.7,8.1,8.7,9.2L8.7,9.2z"/>
</svg>
