<svg height="15" width="15" xmlns="http://www.w3.org/2000/svg" viewBox="0 0 15 15"><path fill="#303646" fill-rule="evenodd" d="m5.37 6.03c-.18 0-.36-.07-.48-.2l-3.52-3.49.01 1.64c0 .15-.05.3-.16.41-.1.1-.24.16-.38.16h-.26c-.32-.01-.56-.23-.56-.52l-.01-3.29c0-.02 0-.04 0-.06l-.01-.09c0-.23.08-.35.15-.42.1-.1.23-.16.38-.16h.18l3.27-.01c.31.01.56.26.57.56v.24c-.04.34-.29.57-.6.57h-1.6l3.5 3.49c.13.13.2.3.2.49 0 .18-.07.35-.2.48-.13.13-.3.2-.48.2m4.28 0c-.19 0-.36-.07-.49-.2-.12-.13-.19-.3-.19-.48 0-.19.07-.36.19-.49l3.51-3.49h-1.6c-.31 0-.57-.23-.61-.54v-.26c.01-.31.26-.56.56-.57l3.27.01c0 0 .17 0 .17 0 .16 0 .29.06.39.16.07.07.15.19.15.4l-.01.12c0 .01 0 .03 0 .05l-.01 3.29c0 .29-.24.51-.56.52 0 0-.23 0-.23 0-.16 0-.29-.06-.4-.16-.1-.11-.16-.26-.16-.41l.01-1.65-3.51 3.5c-.13.13-.3.2-.48.2m-8.95 8.96h-.16c-.16 0-.29-.06-.39-.16-.07-.07-.15-.19-.15-.4l.01-.12c0-.02-.01-.04 0-.07l.01-3.26c0-.3.24-.52.56-.53h.25c.15 0 .29.06.39.16.11.11.16.26.16.41l-.01 1.64 3.52-3.49c.12-.13.3-.2.48-.2.18 0 .35.07.48.2.13.13.2.3.2.48 0 .19-.07.36-.2.49l-3.5 3.49h1.59c.32 0 .57.23.61.54v.26c-.01.31-.26.56-.56.57h-.01c0 0-3.27-.01-3.28-.01m10.32.01c-.3-.01-.55-.26-.56-.56v-.24c.04-.34.3-.57.6-.57h1.61l-3.5-3.49c-.13-.13-.2-.3-.2-.49 0-.18.07-.35.19-.48.13-.13.3-.2.49-.2.18 0 .35.07.48.2l3.51 3.5-.01-1.65c0-.15.06-.3.16-.41.11-.1.24-.16.39-.16h.24c.32.01.56.23.56.52l.01 3.29c0 .02 0 .04 0 .06l.01.09c0 .23-.08.35-.15.42-.1.1-.24.16-.38.16 0 0-.19 0-.2 0 0 0-3.24.01-3.24.01h-.01"/></svg>