<svg height="15" width="15" xmlns="http://www.w3.org/2000/svg" viewBox="0 0 15 15"><path fill="#303646" fill-rule="evenodd" d="m8.14 10.74c-2.32.43-4.32-1.57-3.88-3.89.25-1.29 1.31-2.34 2.6-2.59 2.32-.44 4.32 1.57 3.87 3.89-.24 1.29-1.3 2.34-2.59 2.59m5.48-3.24c0-.84.46-1.52 1.17-2.02.17-.11.25-.32.19-.52-.11-.3-.23-.59-.37-.87-.09-.18-.29-.26-.48-.24-.84.1-1.53-.27-2.12-.86-.59-.59-.82-1.28-.69-2.11.03-.2-.05-.41-.23-.49-.28-.14-.58-.26-.88-.37-.19-.06-.39.02-.51.18-.54.72-1.36 1.18-2.2 1.18-.84 0-1.66-.46-2.2-1.18-.12-.16-.32-.24-.51-.18-.3.11-.6.23-.88.37-.18.08-.26.29-.23.49.13.83-.1 1.52-.69 2.11-.59.59-1.28.96-2.12.86-.19-.02-.4.06-.48.24-.14.28-.26.57-.37.87-.06.2.02.41.19.52.71.5 1.16 1.18 1.16 2.02 0 .84-.45 1.66-1.17 2.2-.16.12-.24.32-.18.51.11.3.23.6.37.88.08.18.29.26.49.23.83-.13 1.52.1 2.11.69.59.59.82 1.28.69 2.11-.03.2.05.4.23.49.28.14.58.26.88.37.19.06.39-.02.51-.18.54-.72 1.36-1.18 2.2-1.18.84 0 1.66.46 2.2 1.18.12.16.32.24.51.18.3-.11.6-.23.88-.37.18-.09.27-.29.23-.49-.13-.83.1-1.52.69-2.11.59-.59 1.28-.96 2.12-.86.2.02.4-.06.48-.24.14-.28.26-.57.37-.87.06-.2-.02-.41-.19-.52-.71-.5-1.17-1.18-1.17-2.02"/></svg>