<svg height="13" width="24" xmlns="http://www.w3.org/2000/svg" viewBox="0 0 24 13"><path fill="#0d7ce7" fill-rule="evenodd" d="m14.54 2c1.69 0 3.17 1.38 3.13 3.08-.03 1.61-1.14 2.92-2.5 2.92h-7.59l1.29-1.29c.39-.39.39-1.03 0-1.42-.19-.19-.45-.29-.71-.29-.25 0-.51.1-.7.29l-2.84 2.84c-.48.48-.48 1.26 0 1.74l2.84 2.84c.39.39 1.02.39 1.41 0 .39-.39.39-1.03 0-1.42l-1.29-1.29h7.59c2.47 0 4.49-2.23 4.5-4.98.01-2.76-2.43-5.02-5.19-5.02h-9.48c-.55 0-1 .45-1 1 0 .55.45 1 1 1h9.54m-14.54-1c0-.55.44-1 1-1 .55 0 1 .45 1 1v6c0 .55-.44 1-1 1-.55 0-1-.45-1-1v-6m22 0c0-.55.44-1 1-1 .55 0 1 .45 1 1v11c0 .55-.44 1-1 1-.55 0-1-.45-1-1v-11"/></svg>