<svg xmlns="http://www.w3.org/2000/svg" width="23" height="16.5" viewBox="-294 388.5 23 16.5" enable-background="new -294 388.5 23 16.5"><path d="m-280.1 389l-4.9 15.5" fill="none" stroke="#303646" stroke-linecap="round"/><g fill="#303646"><path d="m-288 403c-.3 0-.5-.1-.7-.3l-4.5-4.3c-.5-.5-.8-1.2-.8-1.9 0-.7.3-1.3.8-2 0 0 0 0 .1-.1l4.5-4.3c.2-.2.4-.3.7-.3s.5.1.7.3c.2.2.3.4.3.6 0 .2-.1.5-.3.6l-4.4 4.3c-.4.4-.4.9 0 1.3l4.4 4.3c.4.3.4.9 0 1.3-.3.4-.5.5-.8.5"/><path d="m-277 403c-.3 0-.5-.1-.7-.3-.4-.4-.4-.9 0-1.3l4.4-4.3c.4-.4.4-.9 0-1.3l-4.4-4.3c-.2-.2-.3-.4-.3-.6 0-.2.1-.5.3-.6.2-.2.4-.3.7-.3s.5.1.7.3l4.5 4.3c0 0 0 0 .1.1.5.6.8 1.3.8 2 0 .7-.3 1.4-.8 1.9l-4.5 4.3c-.3 0-.6.1-.8.1"/></g></svg>