<?xml version="1.0" encoding="utf-8"?>
<!-- Generator: Avocode 2.4.5 - http://avocode.com -->
<svg height="16" width="20" xmlns:xlink="http://www.w3.org/1999/xlink" xmlns="http://www.w3.org/2000/svg" viewBox="0 0 20 16">
    <path fill="#303646" fill-rule="evenodd" d="M 13.25 7 C 13.94 7 14.5 6.44 14.5 5.75 C 14.5 5.06 13.94 4.5 13.25 4.5 C 12.56 4.5 12 5.06 12 5.75 C 12 6.44 12.56 7 13.25 7 L 13.25 7 Z M 14.32 8.88 L 11.08 10.48 L 7.31 4.38 L 4 12 L 16 12 L 14.32 8.88 Z M 18 14 L 2 14 L 2 2 L 18 2 L 18 14 Z M 19 0 L 1 0 C 0.45 0 0 0.45 0 1 L 0 15 C 0 15.55 0.45 16 1 16 L 19 16 C 19.55 16 20 15.55 20 15 L 20 1 C 20 0.45 19.55 0 19 0 L 19 0 Z M 19 0" />
</svg>