<?xml version="1.0" encoding="utf-8"?>
<!-- Generator: Avocode 2.4.5 - http://avocode.com -->
<svg height="11" width="21" xmlns:xlink="http://www.w3.org/1999/xlink" xmlns="http://www.w3.org/2000/svg" viewBox="0 0 21 11">
    <path fill="#303646" fill-rule="evenodd" d="M 0 11 L 1.92 11 L 1.92 6.4 L 7.13 6.4 L 7.13 11 L 9.05 11 L 9.05 0.08 L 7.13 0.08 L 7.13 4.62 L 1.92 4.62 L 1.92 0.08 L 0 0.08 L 0 11 Z M 16.88 11 L 18.72 11 L 18.72 8.55 L 20.28 8.55 L 20.28 6.97 L 18.72 6.97 L 18.72 0 L 17.09 0 L 11.02 7.18 L 11.37 8.55 L 16.88 8.55 L 16.88 11 Z M 13.29 6.97 L 16.88 2.65 L 16.88 6.97 L 13.29 6.97 Z M 13.29 6.97" />
</svg>