<svg xmlns="http://www.w3.org/2000/svg" width="12" height="12" viewBox="0 0 12 12" enable-background="new 0 0 12 12">
 <g fill="#474747">
  <path d="m1.5 0c-.3 0-.5.2-.5.5s.2.5.5.5h.5v3.5c0 .3.2.5.5.5s.5-.2.5-.5v-4c0-.3-.2-.5-.5-.5h-1"/>
  <path d="m5.5 0c-.3 0-.5.2-.5.5s.2.5.5.5h6c.3 0 .5-.2.5-.5s-.2-.5-.5-.5h-6"/>
  <path d="m5.5 2c-.3 0-.5.2-.5.5s.2.5.5.5h6c.3 0 .5-.2.5-.5s-.2-.5-.5-.5h-6"/>
  <path d="m.5 7c-.3 0-.5.2-.5.5s.2.5.5.5h1.5v1h-1.5c-.3 0-.5.2-.5.5v2c0 .3.2.5.5.5h2c.3 0 .5-.2.5-.5s-.2-.5-.5-.5h-1.5v-1h1.5c.1 0 .1 0 .2 0 .1 0 .2-.1.3-.3 0-.1 0-.1 0-.2v-2c0-.1 0-.1 0-.2-.1-.1-.2-.2-.3-.3 0 0-.1 0-.1 0h-.1-2"/>
  <path d="m5.5 7c-.3 0-.5.2-.5.5s.2.5.5.5h6c.3 0 .5-.2.5-.5s-.2-.5-.5-.5h-6"/>
  <path d="m5.5 9c-.3 0-.5.2-.5.5s.2.5.5.5h6c.3 0 .5-.2.5-.5s-.2-.5-.5-.5h-6"/>
 </g>
</svg>
