<svg height="14" width="13" xmlns="http://www.w3.org/2000/svg" viewBox="0 0 13 14"><path fill="#303646" fill-rule="evenodd" d="m3.05 7h-3.05v2h8.24c.38.31.49.67.49 1.13v.04c0 1.01-.89 1.71-2.29 1.71-1.58 0-2.84-.64-4.07-1.77l-1.37 1.71c1.55 1.46 3.41 2.18 5.39 2.18 2.71 0 4.61-1.52 4.61-4.06v-.04c0-.33-.03-.62-.09-.9h2.09v-2h-3.45c-.67-.46-1.56-.8-2.68-1.09-2.49-.62-3.08-1.09-3.08-2.14v-.04c0-.89.77-1.61 2.1-1.61 1.18 0 2.34.49 3.5 1.4l1.22-1.81c-1.31-1.11-2.8-1.71-4.68-1.71-2.57 0-4.41 1.61-4.41 3.95v.04c0 1.47.53 2.37 1.53 3.01"/></svg>