<?xml version="1.0" encoding="utf-8"?>
<!-- Generator: Avocode 2.4.5 - http://avocode.com -->
<svg height="11" width="19" xmlns:xlink="http://www.w3.org/1999/xlink" xmlns="http://www.w3.org/2000/svg" viewBox="0 0 19 11">
    <path fill="#303646" fill-rule="evenodd" d="M 0 10.81 L 1.9 10.81 L 1.9 6.26 L 7.06 6.26 L 7.06 10.81 L 8.96 10.81 L 8.96 0 L 7.06 0 L 7.06 4.5 L 1.9 4.5 L 1.9 0 L 0 0 L 0 10.81 Z M 15.16 11 C 17.42 11 18.95 9.56 18.95 7.57 L 18.95 7.54 C 18.95 5.55 17.4 4.71 15.77 4.51 L 18.78 1.42 L 18.78 0 L 11.62 0 L 11.62 1.65 L 16.31 1.65 L 13.39 4.76 L 13.69 5.95 L 14.58 5.95 C 16.09 5.95 17.06 6.55 17.06 7.62 L 17.06 7.65 C 17.06 8.64 16.26 9.29 15.19 9.29 C 13.99 9.29 13.12 8.78 12.35 7.86 L 11.02 9.1 C 11.93 10.21 13.28 11 15.16 11 L 15.16 11 Z M 15.16 11" />
</svg>