<?xml version="1.0" encoding="utf-8"?>
<!-- Generator: Avocode 2.4.5 - http://avocode.com -->
<svg height="11" width="20" xmlns:xlink="http://www.w3.org/1999/xlink" xmlns="http://www.w3.org/2000/svg" viewBox="0 0 20 11">
    <path fill="#303646" fill-rule="evenodd" d="M 0.5 11 L 2.45 11 L 2.45 6.43 L 7.75 6.43 L 7.75 11 L 9.7 11 L 9.7 0.15 L 7.75 0.15 L 7.75 4.66 L 2.45 4.66 L 2.45 0.15 L 0.5 0.15 L 0.5 11 Z M 11.9 11 L 19.93 11 L 19.93 9.33 L 14.65 9.33 L 16.93 7.47 C 18.9 5.9 19.82 4.97 19.82 3.27 L 19.82 3.24 C 19.82 1.3 18.33 0 16.16 0 C 14.17 0 13.13 0.82 12.06 2.26 L 13.46 3.33 C 14.3 2.25 15 1.7 16.01 1.7 C 17.03 1.7 17.8 2.32 17.8 3.39 C 17.8 4.37 17.25 5.05 15.73 6.32 L 11.9 9.5 L 11.9 11 Z M 11.9 11" />
</svg>