<?xml version="1.0" encoding="utf-8"?>
<!-- Generator: Avocode 2.4.5 - http://avocode.com -->
<svg height="11" width="20" xmlns:xlink="http://www.w3.org/1999/xlink" xmlns="http://www.w3.org/2000/svg" viewBox="0 0 20 11">
    <path fill="#303646" fill-rule="evenodd" d="M 0 10.82 L 1.86 10.82 L 1.86 6.34 L 6.93 6.34 L 6.93 10.82 L 8.79 10.82 L 8.79 0.18 L 6.93 0.18 L 6.93 4.6 L 1.86 4.6 L 1.86 0.18 L 0 0.18 L 0 10.82 Z M 15.27 11 C 17.5 11 19.21 9.5 19.21 7.38 L 19.21 7.35 C 19.21 5.23 17.56 4.01 15.51 4.01 C 14.37 4.01 13.58 4.44 12.96 5.09 C 12.99 3.63 13.66 1.7 15.51 1.7 C 16.45 1.7 17.07 2.05 17.81 2.63 L 18.81 1.19 C 17.89 0.44 16.95 0 15.57 0 C 12.57 0 11.02 2.54 11.02 5.79 L 11.02 5.82 C 11.02 7.96 11.51 9.07 12.31 9.88 C 13.02 10.59 13.96 11 15.27 11 L 15.27 11 Z M 15.22 9.37 C 13.9 9.37 13.02 8.55 13.02 7.48 L 13.02 7.44 C 13.02 6.43 13.86 5.58 15.18 5.58 C 16.5 5.58 17.34 6.37 17.34 7.43 L 17.34 7.46 C 17.34 8.55 16.54 9.37 15.22 9.37 L 15.22 9.37 Z M 15.22 9.37" />
</svg>