<?xml version="1.0" encoding="utf-8"?>
<!-- Generator: Adobe Illustrator 19.1.0, SVG Export Plug-In . SVG Version: 6.00 Build 0)  -->
<svg version="1.1" id="Layer_1" xmlns="http://www.w3.org/2000/svg" xmlns:xlink="http://www.w3.org/1999/xlink" x="0px" y="0px"
	 width="18px" height="14px" viewBox="-296 390 18 14" style="enable-background:new -296 390 18 14;" xml:space="preserve">
<style type="text/css">
	.st0{fill:#303646;enable-background:new    ;}
</style>
<path class="st0" d="M-296,391c0-0.5,0.4-1,1-1h16c0.5,0,1,0.4,1,1c0,0.5-0.4,1-1,1h-16C-295.6,392-296,391.6-296,391z M-296,397
	c0-0.5,0.4-1,1-1h16c0.5,0,1,0.4,1,1c0,0.5-0.4,1-1,1h-16C-295.6,398-296,397.6-296,397z M-296,403c0-0.5,0.4-1,1-1h16
	c0.5,0,1,0.4,1,1c0,0.5-0.4,1-1,1h-16C-295.6,404-296,403.6-296,403z"/>
</svg>
