<svg height="14" width="18" xmlns="http://www.w3.org/2000/svg" viewBox="0 0 18 14"><path fill="#303646" fill-rule="evenodd" d="m6 1c0-.55.46-1 1-1h10c.55 0 1 .44 1 1 0 .55-.46 1-1 1h-10c-.55 0-1-.44-1-1m0 6c0-.55.46-1 1-1h10c.55 0 1 .44 1 1 0 .55-.46 1-1 1h-10c-.55 0-1-.44-1-1m0 6c0-.55.46-1 1-1h10c.55 0 1 .44 1 1 0 .55-.46 1-1 1h-10c-.55 0-1-.44-1-1m-6-12c0-.55.44-1 1.01-1h1.98c.56 0 1.01.44 1.01 1 0 .55-.44 1-1.01 1h-1.98c-.56 0-1.01-.44-1.01-1m0 6c0-.55.44-1 1.01-1h1.98c.56 0 1.01.44 1.01 1 0 .55-.44 1-1.01 1h-1.98c-.56 0-1.01-.44-1.01-1m0 6c0-.55.44-1 1.01-1h1.98c.56 0 1.01.44 1.01 1 0 .55-.44 1-1.01 1h-1.98c-.56 0-1.01-.44-1.01-1"/></svg>