<svg height="20" width="16" xmlns="http://www.w3.org/2000/svg" viewBox="0 0 16 20"><path fill="#303646" fill-rule="evenodd" d="m2 3c0-.55.45-1 1-1h8c.55 0 1 .45 1 1v2.03h2v-2.03c0-1.66-1.34-3-3-3h-8c-1.66 0-3 1.34-3 3v12c0 1.66 1.34 3 3 3h1.06v-2h-1.06c-.55 0-1-.45-1-1v-12m13 14.92c0 .55-.45.99-1 .99h-6c-.55 0-1-.44-1-.99v-8.98c0-.55.45-.99 1-.99h6c.55 0 1 .44 1 .99v8.98m-1-10.97h-6c-1.11 0-2 .89-2 1.99v8.98c0 1.1.89 1.99 2 1.99h6c1.11 0 2-.89 2-1.99v-8.98c0-1.1-.89-1.99-2-1.99m-.5 9h-5c-.27 0-.5.22-.5.5 0 .28.23.5.5.5h5c.28 0 .5-.22.5-.5 0-.28-.22-.5-.5-.5m0-3h-5c-.27 0-.5.22-.5.5 0 .28.23.5.5.5h5c.28 0 .5-.22.5-.5 0-.28-.22-.5-.5-.5m0-3h-5c-.27 0-.5.22-.5.5 0 .28.23.5.5.5h5c.28 0 .5-.22.5-.5 0-.28-.22-.5-.5-.5"/></svg>