<svg height="15" width="15" xmlns="http://www.w3.org/2000/svg" viewBox="0 0 15 15"><path fill="#303646" fill-rule="evenodd" d="m12.09 13.13h.19c.98 0 1.99-.43 2.25-.94.26-.52.47-.14.47.84v.19c0 .98-.8 1.78-1.78 1.78h-2.07c-.97 0-1.78-.71-1.78-1.57 0-.86.61-2.1 1.34-2.74 0 0 1.95-1.72 1.95-4.13 0-3.14-2.31-5.6-5.16-5.6-2.85 0-5.16 2.46-5.16 5.6 0 2.41 1.95 4.13 1.95 4.13.73.64 1.33 1.88 1.33 2.74 0 .86-.8 1.57-1.77 1.57h-2.07c-.98 0-1.78-.8-1.78-1.78v-.19c0-.98.21-1.36.47-.84.26.51 1.27.94 2.25.94h.19c.98 0 1.78-.11 1.78-.24 0-.13-.66-.71-1.45-1.27 0 0-3.24-2.3-3.24-5.06 0-3.62 3.36-6.56 7.5-6.56 4.14 0 7.5 2.94 7.5 6.56 0 2.76-3.24 5.06-3.24 5.06-.79.56-1.45 1.14-1.45 1.27 0 .13.8.24 1.78.24"/></svg>