<?xml version="1.0" encoding="utf-8"?>
<!-- Generator: Adobe Illustrator 19.1.0, SVG Export Plug-In . SVG Version: 6.00 Build 0)  -->
<svg version="1.1" id="Layer_1" xmlns="http://www.w3.org/2000/svg" xmlns:xlink="http://www.w3.org/1999/xlink" x="0px" y="0px"
	 width="16px" height="16px" viewBox="-297 389 16 16" style="enable-background:new -297 389 16 16;" xml:space="preserve">
<style type="text/css">
	.st0{fill:#303646;enable-background:new    ;}
</style>
<path class="st0" d="M-292.9,405c-1.1,0-2.2-0.5-2.9-1.2c-0.8-0.8-1.2-1.8-1.2-2.9c0-1.2,0.4-2.2,1.2-2.9l1.7-1.7
	c0.2-0.2,0.4-0.2,0.6-0.2c0.2,0,0.4,0.1,0.6,0.2c0.3,0.3,0.3,0.9,0,1.2l-1.7,1.7c-0.5,0.5-0.7,1-0.7,1.7c0,0.7,0.2,1.3,0.7,1.7
	c0.4,0.4,1.1,0.7,1.7,0.7c0.6,0,1.2-0.2,1.7-0.7l1.7-1.7c0.2-0.2,0.4-0.2,0.6-0.2c0.2,0,0.4,0.1,0.6,0.2c0.3,0.3,0.3,0.9,0,1.2
	l-1.7,1.7C-290.7,404.6-291.7,405-292.9,405z M-284.5,398c-0.1,0-0.5,0-0.7-0.3c-0.1-0.2-0.2-0.4-0.2-0.6c0-0.2,0.1-0.5,0.2-0.6
	l1.7-1.7c0.9-0.9,0.9-2.5,0-3.4c-0.5-0.5-1-0.7-1.7-0.7c-0.6,0-1.2,0.2-1.7,0.7l-1.7,1.7c-0.2,0.2-0.4,0.2-0.6,0.2
	c-0.2,0-0.4-0.1-0.6-0.2c-0.2-0.2-0.2-0.4-0.2-0.6c0-0.2,0.1-0.4,0.2-0.6l1.7-1.7c0.8-0.8,1.8-1.2,2.9-1.2c1.1,0,2.1,0.4,2.9,1.2
	c0.8,0.8,1.2,1.9,1.2,3c0,1.1-0.5,2.1-1.2,2.8l-1.7,1.7C-284.2,398-284.5,398-284.5,398z"/>
</svg>
