<svg height="22" width="22" xmlns="http://www.w3.org/2000/svg" viewBox="0 0 22 22"><path fill="#fff" fill-rule="evenodd" d="m11 13.48c-.53 0-1 .18-1.39.53-.4.35-.6.77-.6 1.25 0 .48.2.89.6 1.24.39.34.86.52 1.39.52.53 0 1-.18 1.39-.52.4-.35.59-.76.59-1.24 0-.48-.19-.9-.59-1.25-.39-.35-.86-.53-1.39-.53m1.41-8.08c-.4-.26-.87-.39-1.42-.39-.55 0-1.02.13-1.41.39-.39.26-.59.57-.59.93 0 .18.06.45.17.81.11.35.23.72.36 1.09.14.41.31.92.49 1.52.19.6.39 1.35.59 2.25h.8c.2-.89.4-1.64.58-2.25.19-.61.35-1.12.5-1.52.15-.43.28-.81.38-1.13.09-.32.14-.57.14-.77 0-.36-.19-.67-.59-.93m-1.41 14.6c-4.97 0-9-4.03-9-9 0-4.97 4.03-9 9-9 4.97 0 9 4.03 9 9 0 4.97-4.03 9-9 9m0-20c-6.08 0-11 4.93-11 11 0 6.08 4.92 11 11 11 6.07 0 11-4.92 11-11 0-6.07-4.93-11-11-11"/></svg>