<svg xmlns="http://www.w3.org/2000/svg" width="19" height="19" viewBox="-296 387 19 19" enable-background="new -296 387 19 19"><path d="m-279 396.5c0-.2 0-.4 0-.5l2-.1c-.1-1.3-.4-2.5-1-3.6l-1.8.9c-.5-.9-1.1-1.7-1.8-2.3l1.3-1.5c-1-.8-2.1-1.4-3.3-1.8l-.6 1.9c-.7-.2-1.5-.3-2.3-.3v-2c-1.3 0-2.5.3-3.7.7l.8 1.8c-.9.4-1.8 1-2.4 1.7l-1.4-1.4c-.9.9-1.6 2-2.1 3.2l1.8.7c-.3.9-.5 1.8-.5 2.8 0 .1 0 .1 0 .2h-2c0 1.3.3 2.5.8 3.7l1.8-.8c.4.9 1 1.7 1.7 2.4l-1.4 1.5c.9.9 2 1.5 3.2 2l.7-1.9c.8.3 1.7.5 2.6.5.1 0 .2 0 .4 0l.1 2c1.3-.1 2.5-.4 3.7-.9l-.9-1.8c.9-.4 1.7-1 2.4-1.8l1.5 1.3c.9-1 1.5-2.1 1.9-3.3l-1.9-.6c.3-1 .4-1.8.4-2.7m-7.5 4.6c-2.5 0-4.5-2-4.5-4.5 0-2.5 2-4.5 4.5-4.5 2.5 0 4.5 2 4.5 4.5 0 2.4-2 4.5-4.5 4.5" fill="#fff"/></svg>