<?xml version="1.0" encoding="utf-8"?>
<!-- Generator: Adobe Illustrator 19.1.0, SVG Export Plug-In . SVG Version: 6.00 Build 0)  -->
<svg version="1.1" id="Layer_1" xmlns="http://www.w3.org/2000/svg" xmlns:xlink="http://www.w3.org/1999/xlink" x="0px" y="0px"
	 width="17px" height="16px" viewBox="-297 389 17 16" style="enable-background:new -297 389 17 16;" xml:space="preserve">
<style type="text/css">
	.st0{fill:#FFFFFF;}
</style>
<path class="st0" d="M-286.4,404.5c-0.1-0.2-0.2-0.4-0.2-0.7c0-0.3,0.1-0.6,0.3-0.8l2.2-2.2h-12.5c-0.2,0-0.4-0.2-0.4-0.4v-10.4
	c0-0.7,0.5-1.1,1.1-1.1c0.7,0,1.1,0.4,1.1,1.1v8.6h10.7l-2.2-2.1c-0.2-0.2-0.3-0.5-0.3-0.8c0-0.3,0.1-0.6,0.3-0.8
	c0.2-0.2,0.5-0.3,0.8-0.3c0.3,0,0.6,0.1,0.8,0.3l4.6,4.5c0.1,0.1,0.1,0.2,0.1,0.3c0,0.1,0,0.2-0.1,0.3l-4.6,4.5
	c-0.2,0.3-0.7,0.3-0.9,0.3C-286.1,405-286.3,404.8-286.4,404.5z"/>
</svg>
