<svg xmlns="http://www.w3.org/2000/svg" width="20" height="17" viewBox="0 0 20 17"><path d="m1.582 17.21c-.872 0-1.582-.71-1.582-1.582v-11.861c0-.872.71-1.582 1.582-1.582h3.295c.595 0 .922.693.922.923 0 .239-.317.932-.922.932h-2.491c-.295 0-.534.239-.534.533v10.229c0 .294.239.533.534.533l15.236.021c.294 0 .533-.24.533-.534v-10.249c0-.294-.239-.533-.533-.533h-6l1.058.96c.172.163.266.374.266.584 0 .18-.07.345-.198.467l-.077.124c-.178.178-.367.254-.567.254-.199 0-.388-.076-.53-.212l-2.667-2.434-.19-.179c-.143-.136-.226-.329-.225-.526-.001-.197.079-.384.224-.523l.175-.168c.01-.009.021-.018.033-.026l2.614-2.365c.138-.131.326-.206.525-.206.2 0 .388.075.531.212l.149.208c.092.08.162.246.162.424 0 .211-.095.423-.261.581l-1.081.97h6.86c.872 0 1.582.71 1.582 1.582v11.861c0 .872-.71 1.582-1.582 1.582h-16.836" fill="#d2cfcf" fill-rule="evenodd"/></svg>