<svg height="22" width="22" xmlns="http://www.w3.org/2000/svg" viewBox="0 0 22 22"><path fill="#9da0a9" fill-rule="evenodd" d="m4.05 14.27c-2.82-2.82-2.82-7.4 0-10.22 1.37-1.36 3.18-2.11 5.11-2.11 1.93 0 3.74.75 5.11 2.11 2.81 2.82 2.81 7.4 0 10.22-1.37 1.36-3.18 2.11-5.11 2.11-1.93 0-3.74-.75-5.11-2.11m17.67 6.08l-5.43-5.43c2.91-3.6 2.69-8.9-.65-12.24-1.73-1.73-4.03-2.68-6.48-2.68-2.45 0-4.75.95-6.48 2.68-3.57 3.58-3.57 9.39 0 12.96 1.73 1.73 4.03 2.68 6.48 2.68 2.12 0 4.13-.72 5.76-2.03l5.43 5.43c.18.19.43.28.68.28.25 0 .5-.09.69-.28.37-.38.37-1 0-1.37"/></svg>