<?xml version="1.0" encoding="utf-8"?>
<!-- Generator: Adobe Illustrator 19.1.0, SVG Export Plug-In . SVG Version: 6.00 Build 0)  -->
<svg version="1.1" id="Layer_1" xmlns="http://www.w3.org/2000/svg" xmlns:xlink="http://www.w3.org/1999/xlink" x="0px" y="0px"
	 width="50.2px" height="49px" viewBox="0 0 50.2 49" style="enable-background:new 0 0 50.2 49;" xml:space="preserve">
<style type="text/css">
	.st0{fill:#FFFFFF;}
</style>
<path class="st0" d="M49.5,45.3l-11-11.1c2.7-3.6,4.3-8,4.3-12.8C42.7,9.6,33.2,0,21.4,0S0.1,9.6,0.1,21.4s9.6,21.4,21.3,21.4
	c5.4,0,10.3-2,14.1-5.4l10.9,11c0.4,0.4,1,0.6,1.5,0.6c0.6,0,1.1-0.2,1.5-0.6C50.3,47.5,50.3,46.1,49.5,45.3z M4.4,21.4
	c0-9.4,7.6-17.1,17-17.1s17,7.7,17,17.1s-7.6,17.1-17,17.1S4.4,30.8,4.4,21.4z"/>
</svg>
