<svg xmlns="http://www.w3.org/2000/svg" height="14px" x="0px" y="0px" viewBox="-578.6 777.5 10 14" style="enable-background:new -578.6 777.5 10 14;" xml:space="preserve">
	<path fill="#242424" fill-rule="evenodd" d="M-575.1,777.8l0.1-0.4h6.5l-0.2,0.4c-0.6,0-1,0.2-1.3,0.4c-0.3,0.3-0.6,0.9-0.9,1.7l-2.4,9
		c-0.2,0.6-0.2,1.1-0.2,1.3c0,0.2,0.1,0.5,0.3,0.5c0.2,0.2,0.7,0.3,1.3,0.3l-0.1,0.4h-6.6l0.1-0.4c0.7,0,1.2-0.2,1.5-0.4
		c0.3-0.2,0.6-0.9,0.9-1.7l2.5-9c0.2-0.5,0.2-0.9,0.2-1.3c0-0.2-0.1-0.5-0.3-0.6C-574.1,778-574.4,777.8-575.1,777.8z"/>
</svg>