<svg xmlns="http://www.w3.org/2000/svg" width="12px" height="8px" x="0px" y="0px" viewBox="-293.4 384.4 12 8" style="enable-background:new -293.4 384.4 12 8;" xml:space="preserve">
<path fill="#474747" fill-rule="evenodd" d="M-287.7,392.3h-1.5v-3.4h-2.8v3.4h-1.5v-7.8h1.5v3.1h2.8v-3.1h1.5V392.3z"/>
<path fill="#474747" fill-rule="evenodd" d="M-286.4,389c0-1.5,0.3-2.7,0.9-3.4c0.6-0.8,1.5-1.1,2.7-1.1c0.4,0,0.7,0,0.9,0.1v1.3c-0.3-0.1-0.6-0.1-0.8-0.1
	c-0.5,0-0.9,0.1-1.3,0.3c-0.3,0.2-0.6,0.4-0.7,0.8s-0.3,0.8-0.3,1.4h0.1c0.3-0.6,0.8-0.9,1.5-0.9c0.6,0,1.1,0.2,1.5,0.7
	s0.5,1,0.5,1.8c0,0.8-0.2,1.5-0.6,2c-0.4,0.5-1,0.7-1.8,0.7c-0.5,0-1-0.1-1.4-0.4c-0.4-0.3-0.7-0.7-0.9-1.2
	C-286.3,390.3-286.4,389.7-286.4,389z M-283.9,391.1c0.3,0,0.6-0.1,0.7-0.4c0.2-0.2,0.3-0.6,0.3-1c0-0.4-0.1-0.7-0.2-0.9
	c-0.2-0.2-0.4-0.3-0.7-0.3c-0.3,0-0.6,0.1-0.8,0.3c-0.2,0.2-0.3,0.5-0.3,0.8c0,0.4,0.1,0.8,0.3,1.1S-284.2,391.1-283.9,391.1z"/>
</svg>