<svg xmlns="http://www.w3.org/2000/svg" x="0px" y="0px" width="15px" height="15px" viewBox="-462.5 273.5 15 15" style="enable-background:new -462.5 273.5 15 15;" xml:space="preserve">
<path fill="#077fe1" fill-rule="evenodd" d="M-447.7,275.3c0.2,0.2,0.2,0.6,0,0.8l-4.5,4.5c-0.2,0.2-0.2,0.6,0,0.8l4.5,4.5c0.2,0.2,0.2,0.6,0,0.8l-1.6,1.6
	c-0.2,0.2-0.6,0.2-0.8,0l-4.5-4.5c-0.2-0.2-0.6-0.2-0.8,0l-4.5,4.5c-0.2,0.2-0.6,0.2-0.8,0l-1.6-1.6c-0.2-0.2-0.2-0.6,0-0.8l4.5-4.5
	c0.2-0.2,0.2-0.6,0-0.8l-4.5-4.5c-0.2-0.2-0.2-0.6,0-0.8l1.6-1.6c0.2-0.2,0.6-0.2,0.8,0l4.5,4.5c0.2,0.2,0.6,0.2,0.8,0l4.5-4.5
	c0.2-0.2,0.6-0.2,0.8,0L-447.7,275.3z"/>
</svg>