<svg xmlns="http://www.w3.org/2000/svg" width="30" height="30" viewBox="0 0 30 30">
 <defs>
  <linearGradient id="0" gradientUnits="userSpaceOnUse" y1="30" x2="0">
   <stop stop-color="#555655"/>
   <stop offset="1" stop-color="#676767"/>
  </linearGradient>
 </defs>
 <g>
  <path fill="url(#0)" d="m0 0h30v30h-30z"/>
  <path d="m18.429 11.267l-4.572-2.573 1.584-2.696c0 0 1.358.173 2.543.839 1.098.618 2.029 1.733 2.029 1.733l-1.584 2.697m-5.839 9.789l-4.396 1.944-.185-4.521 4.927-8.316 4.58 2.576-4.926 8.317m-2.59-2.056c-.552 0-1 .448-1 1 0 .552.448 1 1 1 .552 0 1-.448 1-1 0-.552-.448-1-1-1" fill="#343434"/>
  <path d="m19.429 12.267l-4.572-2.573 1.584-2.696c0 0 1.358.173 2.543.839 1.098.618 2.029 1.733 2.029 1.733l-1.584 2.697m-5.839 9.789l-4.396 1.944-.185-4.521 4.927-8.316 4.58 2.576-4.926 8.317m-2.59-2.056c-.552 0-1 .448-1 1 0 .552.448 1 1 1 .552 0 1-.448 1-1 0-.552-.448-1-1-1" fill="#8b8c8b"/>
 </g>
</svg>
