<svg xmlns="http://www.w3.org/2000/svg" viewBox="0 0 21 21">
 <path fill="#e7da4b" fill-rule="evenodd" d="m10.5 21c-5.799 0-10.5-4.701-10.5-10.5 0-5.799 4.701-10.5 10.5-10.5 5.799 0 10.5 4.701 10.5 10.5 0 5.799-4.701 10.5-10.5 10.5m0-18.667c-4.51 0-8.167 3.657-8.167 8.167 0 4.51 3.657 8.167 8.167 8.167 4.51 0 8.167-3.657 8.167-8.167 0-4.51-3.657-8.167-8.167-8.167m0 13.222c-.644 0-1.167-.522-1.167-1.166 0-.644.523-1.167 1.167-1.167.644 0 1.167.523 1.167 1.167 0 .644-.523 1.166-1.167 1.166m0-3.84c-.644 0-1.167-.522-1.167-1.166v-3.938c0-.644.523-1.167 1.167-1.167.644 0 1.167.523 1.167 1.167v3.938c0 .644-.523 1.166-1.167 1.166"/>
</svg>
