<svg xmlns="http://www.w3.org/2000/svg" width="21" height="35" viewBox="0 0 21 35">
 <g fill-rule="evenodd">
  <path fill="#12bc02" d="m10.51 35c-5.799 0-10.5-4.701-10.5-10.5 0-5.799 4.701-10.5 10.5-10.5 5.799 0 10.5 4.701 10.5 10.5 0 5.799-4.701 10.5-10.5 10.5m0-18.577c-4.461 0-8.077 3.616-8.077 8.077 0 4.461 3.616 8.077 8.077 8.077 4.461 0 8.077-3.616 8.077-8.077 0-4.461-3.616-8.077-8.077-8.077m-1.238 12.158c-.149.149-.391.149-.54 0l-.12-.12h-.001l-.127-.128-.562-.562c-.002-.002-.001-.005-.003-.007l-2.574-2.593c-.15-.149-.15-.391 0-.54l.809-.81c.15-.149.391-.149.541 0l2.31 2.327 4.856-4.856c.149-.15.391-.15.54 0l.81.809c.149.149.149.391 0 .54l-5.939 5.94"/>
  <path fill="#a0a0a0" d="m18 7h-2-1v-1-2-1-2-1h1 2 1v1 2h-1v-2h-2v2h2v1h-2v2h2v-2h1v2 1h-1m-9 0v-1h3v1h-3m-1-7h1v6h-1v-6m4 0h1v6h-1v-6m-9 5v2h-1v-2-1-3-1h1 2 1v1 3 1h-1-2m2-4h-2v3h2v-3"/>
 </g>
</svg>
