<svg xmlns="http://www.w3.org/2000/svg" width="17.969" height="17.969" viewBox="0 0 17.969 17.969">
 <g fill-rule="evenodd">
  <path fill="#656565" d="m12.563 10.87c-.686 0-1.337-.141-1.942-.376l-5.477 6.603c-1.156 1.159-3.03 1.159-4.186 0l-.12-.121c-1.156-1.16-1.156-3.039 0-4.199l6.643-5.546c-.198-.565-.326-1.164-.326-1.797 0-3.003 2.421-5.437 5.408-5.437.648 0 1.26.133 1.835.343l-1.627 1.634c-.892.896-.892 2.347 0 3.242.893.896 2.34.896 3.232 0l1.626-1.633c.21.58.343 1.198.343 1.851 0 3.002-2.422 5.436-5.409 5.436m-8.707 3.159c-.467-.469-1.223-.469-1.69 0-.467.468-.467 1.227 0 1.695.467.469 1.223.469 1.69 0 .467-.468.467-1.227 0-1.695"/>
  <path fill="#2e2e2e" d="m17.003 6.216c-.892.896-2.339.896-3.232 0-.174-.175-.304-.375-.411-.584.858.434 1.927.303 2.643-.416l1.626-1.633c.191.527.304 1.089.326 1.677l-.952.956m-3.44-5.219c-2.987 0-5.408 2.434-5.408 5.437 0 .633.128 1.232.326 1.797l-6.643 5.546c-1.006 1.009-1.135 2.563-.39 3.714-.173-.112-.338-.242-.49-.394l-.12-.121c-1.156-1.16-1.156-3.039 0-4.199l6.643-5.546c-.198-.565-.326-1.164-.326-1.797 0-3.003 2.421-5.437 5.408-5.437.648 0 1.26.133 1.835.343l-.67.673c-.056-.002-.108-.016-.165-.016"/>
 </g>
</svg>
