<svg version="1.1" id="Layer_1" xmlns="http://www.w3.org/2000/svg" xmlns:xlink="http://www.w3.org/1999/xlink" x="0px" y="0px"
	 width="14px" height="14px" viewBox="0 0 14 14" enable-background="new 0 0 14 14" xml:space="preserve">
<g id="path4744">
	<polygon fill="#303030" points="4,8 4,9 3,9 3,10 2,10 2,10.9 1.5,10.4 0,9 0,14 5,14 3.5,12.4 3.1,12 4,12 4,11 5,11 5,10 6,10 
		6,8 	"/>
</g>
<g id="path4788">
	<polygon fill="#303030" points="4,6 4,5 3,5 3,4 2,4 2,3.1 1.5,3.6 0,5 0,0 5,0 3.5,1.6 3.1,2 4,2 4,3 5,3 5,4 6,4 6,6 	"/>
</g>
<g id="path4790">
	<polygon fill="#303030" points="10,8 10,9 11,9 11,10 12,10 12,10.9 12.5,10.4 14,9 14,14 9,14 10.5,12.4 10.9,12 10,12 10,11 
		9,11 9,10 8,10 8,8 	"/>
</g>
<g id="path4792">
	<polygon fill="#303030" points="10,6 10,5 11,5 11,4 12,4 12,3.1 12.5,3.6 14,5 14,0 9,0 10.5,1.6 10.9,2 10,2 10,3 9,3 9,4 8,4 
		8,6 	"/>
</g>
</svg>
