<svg xmlns="http://www.w3.org/2000/svg" width="12.46" height="14.01" viewBox="0 0 12.46 14.01" enable-background="new 0 0 12.46 14.01">
 <path fill="#474747" d="m10.28 0l-4.13 5.01-4.09-4.94c0 0-.9.03-.9 1.05 0 2.22 1.55 4.32 3.27 5.95l-1.78 2.19.11.14c-.09-.01-.17-.04-.27-.04-1.37 0-2.49 1.05-2.49 2.33 0 1.28 1.12 2.32 2.49 2.32s2.49-1.04 2.49-2.32c0-.69-.34-1.32-.86-1.74.48-.3 1.21-.79 2.02-1.42.83.64 1.59 1.17 2.1 1.49-.48.42-.78 1.01-.78 1.67 0 1.28 1.12 2.32 2.49 2.32s2.49-1.04 2.49-2.32c0-1.28-1.12-2.32-2.49-2.32-.05-.01-.12.03-.18.03l.04-.04-1.91-2.28c1.7-1.61 3.23-3.68 3.23-5.84 0-1.12-.85-1.24-.85-1.24m-7.79 10.53c.69 0 1.25.52 1.25 1.16 0 .64-.56 1.16-1.25 1.16-.69 0-1.25-.52-1.25-1.16.01-.64.56-1.16 1.25-1.16m7.48 0c.69 0 1.25.52 1.25 1.16 0 .64-.56 1.16-1.25 1.16-.69 0-1.25-.52-1.25-1.16 0-.64.56-1.16 1.25-1.16"/>
</svg>
