<svg version="1.1" id="Layer_1" xmlns="http://www.w3.org/2000/svg" xmlns:xlink="http://www.w3.org/1999/xlink" x="0px" y="0px"
	 width="11px" height="13px" viewBox="0 0 11 13" enable-background="new 0 0 11 13" xml:space="preserve">
<path id="path4608" fill="#303030" d="M1,0v6.5c0,0.7,0.1,1.3,0.2,1.8c0.1,0.6,0.4,1,0.7,1.4
	c0.3,0.4,0.8,0.7,1.3,0.9C3.8,10.9,4.5,11,5.3,11c0.8,0,1.5-0.1,2.1-0.3c0.6-0.2,1-0.5,1.4-0.9c0.3-0.4,0.6-0.9,0.7-1.4
	c0.1-0.6,0.2-1.2,0.2-1.8V0H7.2v6.3c0,0.5,0,0.9-0.1,1.2C7,7.9,6.9,8.2,6.8,8.4C6.6,8.6,6.5,8.7,6.2,8.8S5.7,9,5.3,9
	S4.7,8.9,4.4,8.8C4.2,8.7,4,8.6,3.9,8.4C3.8,8.2,3.7,7.9,3.6,7.6C3.6,7.3,3.6,6.8,3.6,6.3V0H1L1,0z M0.5,12C0.2,12,0,12.3,0,12.5
	C0,12.8,0.2,13,0.5,13h10c0.3,0,0.5-0.2,0.5-0.5c0-0.3-0.2-0.5-0.5-0.5H0.5z"/>
</svg>
