<svg xmlns="http://www.w3.org/2000/svg" width="13" height="11" viewBox="0 0 13 11" enable-background="new 0 0 13 11">
 <path fill="#474747" d="m2 0c-1.1 0-2 .9-2 2 0 1.1.9 2 2 2s2-.9 2-2c0-1.1-.9-2-2-2m4.5 0c-.3 0-.5.2-.5.5 0 .3.2.5.5.5h6c.3 0 .5-.2.5-.5 0-.3-.2-.5-.5-.5h-6m0 2c-.3 0-.5.2-.5.5 0 .3.2.5.5.5h6c.3 0 .5-.2.5-.5 0-.3-.2-.5-.5-.5h-6m-4.5 5c-1.1 0-2 .9-2 2 0 1.1.9 2 2 2s2-.9 2-2c0-1.1-.9-2-2-2m4.5 0c-.3 0-.5.2-.5.5s.2.5.5.5h6c.3 0 .5-.2.5-.5s-.2-.5-.5-.5h-6m0 2c-.3 0-.5.2-.5.5s.2.5.5.5h6c.3 0 .5-.2.5-.5s-.2-.5-.5-.5h-6"/>
</svg>
