<svg xmlns="http://www.w3.org/2000/svg" width="14" height="14" viewBox="-296 390 14 14" enable-background="new -296 390 14 14">
 <path fill="#474747" d="m-283.1 398.4h-.7c-.1.4-.3.8-.5 1.2l.7.7c.4.4.4 1.1 0 1.6l-.4.4c-.4.4-1.1.4-1.6 0l-.7-.7c-.4.2-.8.4-1.2.5v.7c0 .6-.5 1.1-1.1 1.1h-.6c-.6 0-1.1-.5-1.1-1.1v-.7c-.4-.1-.8-.3-1.2-.5l-.7.7c-.4.4-1.1.4-1.6 0l-.4-.4c-.4-.4-.4-1.1 0-1.6l.7-.7c-.2-.4-.4-.8-.5-1.2h-.7c-.6 0-1.1-.5-1.1-1.1v-.6c0-.6.5-1.1 1.1-1.1h.7c.1-.4.3-.8.5-1.2l-.7-.7c-.4-.4-.4-1.1 0-1.6l.4-.4c.4-.4 1.1-.4 1.6 0l.6.6c.4-.2.8-.4 1.3-.5v-.8c0-.6.5-1.1 1.1-1.1h.6c.6 0 1.1.5 1.1 1.1v.8c.5.1.9.3 1.3.5l.6-.6c.4-.4 1.1-.4 1.6 0l.4.4c.4.4.4 1.1 0 1.6l-.7.7c.2.4.4.8.5 1.2h.7c.6 0 1.1.5 1.1 1.1v.6c0 .6-.5 1.1-1.1 1.1m-5.9-4.4c-1.7 0-3.1 1.4-3.1 3.1 0 1.7 1.4 3.1 3.1 3.1s3.1-1.4 3.1-3.1c0-1.8-1.4-3.1-3.1-3.1m0 4.4c-.8 0-1.4-.6-1.4-1.4 0-.8.6-1.4 1.4-1.4s1.4.6 1.4 1.4c0 .8-.6 1.4-1.4 1.4"/>
</svg>
