<svg xmlns="http://www.w3.org/2000/svg" width="10" height="10" viewBox="0 0 10 10" enable-background="new 0 0 10 10">
 <path fill="#474747" d="m9.9 1.17c.13.13.13.4 0 .54l-3.02 3.02c-.13.13-.13.4 0 .54l3.02 3.02c.13.13.13.4 0 .54l-1.07 1.07c-.13.13-.4.13-.54 0l-3.02-3.02c-.13-.13-.4-.13-.54 0l-3.02 3.02c-.13.13-.4.13-.54 0l-1.07-1.07c-.13-.13-.13-.4 0-.54l3.02-3.02c.13-.13.13-.4 0-.54l-3.02-3.02c-.13-.13-.13-.4 0-.54l1.07-1.07c.13-.13.4-.13.54 0l3.02 3.02c.13.13.4.13.54 0l3.02-3.02c.13-.13.4-.13.54 0l1.07 1.07"/>
</svg>
