<svg version="1.1" id="Layer_1" xmlns="http://www.w3.org/2000/svg" xmlns:xlink="http://www.w3.org/1999/xlink" x="0px" y="0px"
	 width="9px" height="12px" viewBox="0 0 9 12" enable-background="new 0 0 9 12" xml:space="preserve">
<path id="path4714" fill="#303030" d="
	M9,8.3C9,9,8.9,9.6,8.6,10.1c-0.3,0.5-0.7,0.8-1.1,1.1c-0.5,0.3-1,0.5-1.7,0.6C5.2,11.9,4.5,12,3.7,12L0,12V0l3.5,0
	c1,0,1.8,0.1,2.5,0.3C6.6,0.5,7.1,0.7,7.4,1C7.8,1.3,8,1.6,8.2,2c0.1,0.4,0.2,0.7,0.2,1.1c0,0.6-0.2,1-0.5,1.5
	C7.6,5,7.2,5.3,6.7,5.6c0.9,0.3,1.5,0.7,1.8,1.2C8.8,7.2,9,7.8,9,8.3 M2.7,6.7v3.2c0.2,0,0.4,0,0.6,0.1c0.2,0,0.5,0,0.7,0
	c0.3,0,0.6,0,0.9-0.1c0.3-0.1,0.5-0.1,0.8-0.2C5.8,9.5,6,9.4,6.2,9.2c0.1-0.2,0.2-0.5,0.2-0.9c0-0.6-0.2-1-0.6-1.2
	c-0.4-0.3-1-0.4-1.6-0.4H2.7 M3.7,4.8c0.7,0,1.2-0.1,1.5-0.4c0.3-0.3,0.5-0.6,0.5-1.1c0-0.3-0.1-0.5-0.2-0.7
	C5.5,2.5,5.4,2.4,5.2,2.3C5,2.2,4.8,2.1,4.6,2.1C4.4,2,4.1,2,3.9,2C3.7,2,3.5,2,3.3,2c-0.2,0-0.4,0-0.6,0.1v2.7H3.7"/>
</svg>