<svg xmlns="http://www.w3.org/2000/svg" width="13" height="15" viewBox="0 0 13 15" enable-background="new 0 0 13 15">
 <path fill="#474747" d="m4.53 0c-.29 0-.53.24-.53.53v.47h-.47c-.29 0-.53.24-.53.53v.94c0 .29.24.53.53.53h1 2.94 1c.29 0 .53-.24.53-.53v-.94c0-.29-.24-.53-.53-.53h-.47v-.47c0-.29-.24-.53-.53-.53h-2.94m-2.53 1c-1.09 0-2 .91-2 2v9c0 1.09.91 2 2 2h1v-1h-1c-.55 0-1-.45-1-1v-9c0-.55.45-1 1-1v-.47c0-.18.03-.37.09-.53h-.09m7.91 0c.06.16.09.35.09.53v.47c.55 0 1 .45 1 1v2h1v-2c0-1.09-.91-2-2-2h-.09m-4.91 5c-.55 0-1 .45-1 1v7c0 .55.45 1 1 1h7c.55 0 1-.45 1-1v-7c0-.55-.45-1-1-1h-7m0 1h7v7h-7v-7m1 1v1h5v-1h-5m0 2v1h5v-1h-5m0 2v1h5v-1h-5"/>
</svg>
