<svg xmlns="http://www.w3.org/2000/svg" width="9" height="12" viewBox="0 0 9 12" enable-background="new 0 0 9 12">
 <path fill="#474747" d="m9 8.3c0 .71-.14 1.3-.41 1.78-.27.47-.65.84-1.13 1.13-.46.28-1.02.48-1.67.61-.64.11-1.32.17-2.06.17l-3.73.01v-12h3.47c1.01 0 1.84.09 2.47.28.64.18 1.14.42 1.5.72.36.29.6.62.73.99.13.37.2.73.2 1.1 0 .55-.16 1.05-.48 1.47-.3.43-.72.77-1.24 1.02.92.29 1.53.68 1.85 1.17.33.49.5 1.01.5 1.55m-6.33-1.59v3.18c.19.03.39.04.61.06.23.01.46.02.67.02.3 0 .6-.02.89-.06.29-.05.54-.13.76-.25.23-.13.42-.3.56-.51.14-.23.22-.51.22-.85 0-.57-.21-.97-.63-1.21-.41-.25-.96-.38-1.65-.38h-1.43m1.04-1.93c.68 0 1.19-.13 1.54-.38.35-.26.52-.62.52-1.08 0-.28-.05-.5-.15-.66-.1-.18-.24-.31-.41-.4-.18-.09-.38-.15-.61-.18-.23-.04-.47-.06-.72-.06-.2 0-.41.01-.63.02-.21.01-.41.03-.58.06v2.68h1.04"/>
</svg>
