<svg version="1.1" id="Layer_1" xmlns="http://www.w3.org/2000/svg" xmlns:xlink="http://www.w3.org/1999/xlink" x="0px" y="0px"
	 width="13.3px" height="13.4px" viewBox="0 0 13.3 13.4" enable-background="new 0 0 13.3 13.4" xml:space="preserve">
<g id="path4655">
	<path fill="#474747" d="M6.7,0C3,0,0,2.7,0,6c0,2.5,1.6,4.6,4,5.5V12H1.3v-0.7c0-0.4-0.3-0.7-0.7-0.7C0.3,10.7,0,11,0,11.4v1.3
		c0,0.4,0.3,0.7,0.7,0.7h4c0.4,0,0.7-0.3,0.7-0.7v-0.8v-0.5v-0.8C3.8,9.9,2.7,8.1,2.7,6c0-2.7,1.8-4.8,4-4.8c2.2,0,4,2.2,4,4.8
		c0,2.1-1.1,3.8-2.7,4.5v0.8v0.5v0.8c0,0.4,0.3,0.7,0.7,0.7h4c0.1,0,0.2,0,0.2,0c0.2-0.1,0.4-0.3,0.4-0.6v-1.3
		c0-0.4-0.3-0.7-0.7-0.7c-0.4,0-0.7,0.3-0.7,0.7V12H9.3v-0.5c2.4-0.9,4-3,4-5.5C13.3,2.7,10.3,0,6.7,0L6.7,0z"/>
</g>
</svg>
