<svg xmlns="http://www.w3.org/2000/svg" width="14" height="14" viewBox="0 0 14 14" enable-background="new 0 0 14 14">
 <g>
  <path fill="#484748" d="m4 8v1h-1v1h-1v.88l-.5-.5-1.5-1.38v5h5l-1.5-1.62-.38-.38h.88v-1h1v-1h1v-2z"/>
 </g>
 <g>
  <path fill="#484748" d="m4 6v-1h-1v-1h-1v-.88l-.5.5-1.5 1.38v-5h5l-1.5 1.62-.38.38h.88v1h1v1h1v2z"/>
 </g>
 <g>
  <path fill="#484748" d="m10 8v1h1v1h1v.88l.5-.5 1.5-1.38v5h-5l1.5-1.62.38-.38h-.88v-1h-1v-1h-1v-2z"/>
 </g>
 <g>
  <path fill="#484748" d="m10 6v-1h1v-1h1v-.88l.5.5 1.5 1.38v-5h-5l1.5 1.62.38.38h-.88v1h-1v1h-1v2z"/>
 </g>
</svg>
