<svg xmlns="http://www.w3.org/2000/svg" viewBox="0 0 12 11" enable-background="new 0 0 12 11">
 <g transform="translate(18 .25)">
  <path opacity=".992" fill="#474747" d="m-8.88.26v2.24c-.56-.26-.89-.44-1.42-.57-.53-.13-1.03-.2-1.5-.2-.62 0-1.09.09-1.39.27-.3.18-.45.46-.45.84 0 .28.1.51.3.67.2.16.57.29 1.1.4l1.11.23c1.13.24 1.93.6 2.4 1.08.49.49.73 1.17.73 2.06 0 1.17-.33 2.04-1 2.61-.66.57-1.67.85-3.04.85-.64 0-1.29-.06-1.94-.19-.65-.13-1.29-.32-1.94-.57v-2.3c.65.36 1.27.63 1.87.82.61.18 1.19.27 1.75.27.57 0 1.01-.1 1.31-.3.3-.2.46-.48.46-.85 0-.33-.1-.59-.31-.77-.2-.18-.61-.34-1.23-.48l-1.01-.23c-1.01-.23-1.76-.59-2.23-1.09-.47-.5-.7-1.17-.7-2.01 0-1.06.33-1.87.98-2.44.65-.57 1.59-.85 2.81-.85.56 0 1.13.04 1.72.13.6.09.99.2 1.62.38"/>
 </g>
 <path fill="#474747" d="m12 6.01c0 .27-.23.5-.5.5h-11c-.28 0-.5-.23-.5-.5v-.01c0-.27.22-.5.5-.5h11c.27 0 .5.22.5.51"/>
</svg>
