<svg version="1.1" id="Layer_1" xmlns="http://www.w3.org/2000/svg" xmlns:xlink="http://www.w3.org/1999/xlink" x="0px" y="0px"
	 width="14.1px" height="10px" viewBox="0 0 14.1 10" enable-background="new 0 0 14.1 10" xml:space="preserve">
<path id="path4640" fill="#303030" d="M2.8,0
	C1.3,0,0,1.3,0,2.7C0,4,1.3,5.1,2.8,5.1c0,0,0.1,0,0.1,0C2.7,6.5,2,8.3,0,10c1.4,0,5.6-2.5,5.6-7.4C5.6,1.3,4.4,0,2.8,0L2.8,0z
	 M11.3,0C9.7,0,8.5,1.3,8.5,2.7s1.3,2.5,2.8,2.5c0.1,0,0.1,0,0.1,0c-0.2,1.4-0.9,3.1-3,4.9c1.5,0,5.6-2.4,5.6-7.3
	C14.1,1.3,12.8,0,11.3,0L11.3,0z"/>
</svg>
