<svg xmlns="http://www.w3.org/2000/svg" width="11" height="13.03" viewBox="0 0 11 13.03" enable-background="new 0 0 11 13.03">
 <path fill="#484748" d="m1 0v6.5c0 .68.08 1.29.22 1.84.14.56.36 1.05.69 1.44.33.39.76.69 1.31.91.56.2 1.24.28 2.06.28.84 0 1.53-.08 2.09-.28.56-.21 1.03-.51 1.38-.91.34-.39.58-.88.72-1.44.14-.55.19-1.16.19-1.84v-6.5h-2.5v6.31c0 .49-.04.91-.09 1.25-.05.33-.14.6-.28.81-.14.2-.33.35-.56.44s-.53.16-.89.16-.67-.07-.9-.16c-.24-.09-.4-.23-.53-.43-.12-.2-.23-.45-.28-.78-.06-.35-.07-.76-.07-1.26v-6.34h-2.56m-.5 12.03c-.28 0-.5.22-.5.5 0 .28.22.5.5.5h10c.28 0 .5-.22.5-.5 0-.28-.22-.5-.5-.5h-10"/>
</svg>
