<svg xmlns="http://www.w3.org/2000/svg" width="13.3" height="13.4" viewBox="0 0 13.3 13.4" enable-background="new 0 0 13.3 13.4">
 <g>
  <path fill="#474747" d="m6.7 0c-3.7 0-6.7 2.7-6.7 6 0 2.5 1.6 4.6 4 5.5v.5h-2.7v-.7c0-.4-.3-.7-.7-.7-.3.1-.6.4-.6.8v1.3c0 .4.3.7.7.7h4c.4 0 .7-.3.7-.7v-.8-.5-.8c-1.6-.7-2.7-2.5-2.7-4.6 0-2.7 1.8-4.8 4-4.8 2.2 0 4 2.2 4 4.8 0 2.1-1.1 3.8-2.7 4.5v.8.5.8c0 .4.3.7.7.7h4c.1 0 .2 0 .2 0 .2-.1.4-.3.4-.6v-1.3c0-.4-.3-.7-.7-.7-.4 0-.7.3-.7.7v.6h-2.6v-.5c2.4-.9 4-3 4-5.5 0-3.3-3-6-6.6-6"/>
 </g>
</svg>
