<svg version="1.1" id="Layer_1" xmlns="http://www.w3.org/2000/svg" xmlns:xlink="http://www.w3.org/1999/xlink" x="0px" y="0px"
	 width="14px" height="11px" viewBox="0 0 14 11" enable-background="new 0 0 14 11" xml:space="preserve">
<path id="path4604" fill="#303030" d="M3,0C1.4,0,0,1.4,0,3v1c0,1.6,1.4,3,3,3h3l0.7-0.7L6.2,5.8
	L6.8,5l1-1H3.5C3.2,4,3,3.8,3,3.5C3,3.2,3.2,3,3.5,3h7C10.8,3,11,3.2,11,3.5C11,3.8,10.8,4,10.5,4H9.3l1,1H11c0,0,0.1,0,0.1,0
	L12,4.1c0,0,0-0.1,0-0.1V3c0-0.6-0.4-1-1-1H8V1h3c1.1,0,2,0.9,2,2v0.4L13.5,4L14,4.4c0-0.1,0-0.3,0-0.4V3c0-1.6-1.4-3-3-3H8L7,1L6,0
	H3L3,0z M3,1h3v1H3C2.4,2,2,2.4,2,3v1c0,0.6,0.4,1,1,1h3v1H3C1.9,6,1,5.1,1,4V3C1,1.9,1.9,1,3,1z"/>
<g id="path4691">
	<polygon fill="#303030" points="8.6,4.7 7.5,5.7 9.6,7.8 7.5,9.9 8.6,11 10.7,8.9 12.8,11 13.8,9.9 11.8,7.8 13.8,5.7 12.8,4.7 
		10.7,6.8 	"/>
</g>
</svg>
