<svg xmlns="http://www.w3.org/2000/svg" width="13" height="11.99" viewBox="0 0 13 11.99" enable-background="new 0 0 13 11.99">
 <g transform="translate(18 .25006)">
  <g>
   <path fill="#474747" d="m-7.98.31v2.45c-.64-.29-1.01-.49-1.62-.63-.6-.14-1.17-.22-1.71-.22-.71 0-1.24.1-1.58.29-.34.2-.51.5-.51.91 0 .31.11.55.34.73.23.17.65.32 1.25.44l1.27.26c1.29.26 2.2.65 2.74 1.18.54.53.81 1.27.81 2.25 0 1.27-.38 2.22-1.14 2.85-.75.62-1.91.93-3.46.93-.73 0-1.47-.07-2.21-.21-.74-.14-1.48-.35-2.21-.62v-2.52c.74.39 1.45.69 2.14.89.69.2 1.36.29 2 .29.65 0 1.15-.11 1.49-.33.35-.22.52-.53.52-.93 0-.36-.12-.64-.36-.84-.23-.2-.7-.37-1.4-.53l-1.15-.26c-1.16-.25-2-.64-2.54-1.18-.53-.54-.8-1.27-.8-2.19 0-1.15.37-2.04 1.11-2.66.74-.62 1.81-.93 3.21-.93.63 0 1.29.05 1.96.15.68.11 1.13.23 1.85.43"/>
  </g>
 </g>
 <g>
  <path fill="#474747" d="m.5 6h12c.28 0 .5.2.5.46v.08c0 .26-.22.46-.5.46h-12c-.28 0-.5-.2-.5-.45v-.09c0-.25.22-.46.5-.46"/>
 </g>
</svg>
