<svg version="1.1" id="Layer_1" xmlns="http://www.w3.org/2000/svg" xmlns:xlink="http://www.w3.org/1999/xlink" x="0px" y="0px"
	 width="12px" height="12px" viewBox="0 0 12 12" enable-background="new 0 0 12 12" xml:space="preserve">
<path fill="#303030" d="M1.5,0C1.2,0,1,0.2,1,0.5S1.2,1,1.5,1H2v3.5C2,4.8,2.2,5,2.5,5S3,4.8,3,4.5v-4C3,0.2,2.8,0,2.5,0H1.5z"/>
<path fill="#303030" d="M5.5,0C5.2,0,5,0.2,5,0.5S5.2,1,5.5,1h6C11.8,1,12,0.8,12,0.5S11.8,0,11.5,0H5.5z"/>
<path fill="#303030" d="M5.5,2C5.2,2,5,2.2,5,2.5S5.2,3,5.5,3h6C11.8,3,12,2.8,12,2.5S11.8,2,11.5,2H5.5z"/>
<path fill="#303030" d="M0.5,7C0.2,7,0,7.2,0,7.5S0.2,8,0.5,8H2v1H0.5C0.2,9,0,9.2,0,9.5v2C0,11.8,0.2,12,0.5,12h2
	C2.8,12,3,11.8,3,11.5S2.8,11,2.5,11H1v-1h1.5c0.1,0,0.1,0,0.2,0c0.1,0,0.2-0.1,0.3-0.3c0-0.1,0-0.1,0-0.2v-2c0-0.1,0-0.1,0-0.2
	C2.9,7.2,2.8,7.1,2.7,7c0,0-0.1,0-0.1,0H2.5L0.5,7L0.5,7z"/>
<path fill="#303030" d="M5.5,7C5.2,7,5,7.2,5,7.5S5.2,8,5.5,8h6C11.8,8,12,7.8,12,7.5S11.8,7,11.5,7H5.5z"/>
<path fill="#303030" d="M5.5,9C5.2,9,5,9.2,5,9.5S5.2,10,5.5,10h6c0.3,0,0.5-0.2,0.5-0.5S11.8,9,11.5,9H5.5z"/>
</svg>
