<svg xmlns="http://www.w3.org/2000/svg" width="13" height="15" viewBox="0 0 13 15" enable-background="new 0 0 13 15">
    <path d="m4.5 0c-.3 0-.5.2-.5.5v.5h-.5c-.3 0-.5.2-.5.5v.9c0 .4.2.6.5.6h1 2.9 1c.4 0 .6-.2.6-.5v-1c0-.3-.2-.5-.5-.5h-.5v-.5c0-.3-.2-.5-.5-.5h-3m-2.5 1c-1.1 0-2 .9-2 2v9c0 1.1.9 2 2 2h1v-1h-1c-.6 0-1-.4-1-1v-9c0-.6.4-1 1-1v-.5c0-.2 0-.3 0-.5m7.9 0c.1.2.1.3.1.5v.5c.6 0 1 .4 1 1v2h1v-2c0-1.1-.9-2-2.1-2m-4.9 5c-.6 0-1 .4-1 1v7c0 .6.4 1 1 1h7c.6 0 1-.4 1-1v-7c0-.6-.4-1-1-1h-7m0 1h7v7h-7v-7m1 1v1 4h1l1-1h1l1 1h1v-4-1h-1v3h-.2-.8v-1h-1v1h-.8-.2v-3h-1" fill="#474747"/>
</svg>