<svg version="1.1" id="Layer_1" xmlns="http://www.w3.org/2000/svg" xmlns:xlink="http://www.w3.org/1999/xlink" x="0px" y="0px"
	 width="14px" height="14px" viewBox="-296 390 14 14" enable-background="new -296 390 14 14" xml:space="preserve">
<path fill="#303030" d="M-283.1,398.4h-0.7c-0.1,0.4-0.3,0.8-0.5,1.2l0.7,0.7c0.4,0.4,0.4,1.1,0,1.6l-0.4,0.4
	c-0.4,0.4-1.1,0.4-1.6,0l-0.7-0.7c-0.4,0.2-0.8,0.4-1.2,0.5v0.7c0,0.6-0.5,1.1-1.1,1.1h-0.6c-0.6,0-1.1-0.5-1.1-1.1v-0.7
	c-0.4-0.1-0.8-0.3-1.2-0.5l-0.7,0.7c-0.4,0.4-1.1,0.4-1.6,0l-0.4-0.4c-0.4-0.4-0.4-1.1,0-1.6l0.7-0.7c-0.2-0.4-0.4-0.8-0.5-1.2h-0.7
	c-0.6,0-1.1-0.5-1.1-1.1v-0.6c0-0.6,0.5-1.1,1.1-1.1h0.7c0.1-0.4,0.3-0.8,0.5-1.2l-0.7-0.7c-0.4-0.4-0.4-1.1,0-1.6l0.4-0.4
	c0.4-0.4,1.1-0.4,1.6,0l0.6,0.6c0.4-0.2,0.8-0.4,1.3-0.5v-0.8c0-0.6,0.5-1.1,1.1-1.1h0.6c0.6,0,1.1,0.5,1.1,1.1v0.8
	c0.5,0.1,0.9,0.3,1.3,0.5l0.6-0.6c0.4-0.4,1.1-0.4,1.6,0l0.4,0.4c0.4,0.4,0.4,1.1,0,1.6l-0.7,0.7c0.2,0.4,0.4,0.8,0.5,1.2h0.7
	c0.6,0,1.1,0.5,1.1,1.1v0.6C-282,397.9-282.5,398.4-283.1,398.4z M-289,394c-1.7,0-3.1,1.4-3.1,3.1c0,1.7,1.4,3.1,3.1,3.1
	s3.1-1.4,3.1-3.1C-285.9,395.3-287.3,394-289,394z M-289,398.4c-0.8,0-1.4-0.6-1.4-1.4c0-0.8,0.6-1.4,1.4-1.4s1.4,0.6,1.4,1.4
	C-287.6,397.8-288.2,398.4-289,398.4z"/>
</svg>
