<svg version="1.1" id="Layer_1" xmlns="http://www.w3.org/2000/svg" xmlns:xlink="http://www.w3.org/1999/xlink" x="0px" y="0px"
	 width="12.46px" height="14.01px" viewBox="0 0 12.46 14.01" enable-background="new 0 0 12.46 14.01" xml:space="preserve">
<path id="path4636" fill="#474747" d="M10.28,0L6.15,5.01L2.06,0.07c0,0-0.9,0.03-0.9,1.05
	c0,2.22,1.55,4.32,3.27,5.95L2.65,9.26L2.76,9.4C2.67,9.39,2.59,9.36,2.49,9.36C1.12,9.36,0,10.41,0,11.69
	c0,1.28,1.12,2.32,2.49,2.32s2.49-1.04,2.49-2.32c0-0.69-0.34-1.32-0.86-1.74c0.48-0.3,1.21-0.79,2.02-1.42
	c0.83,0.64,1.59,1.17,2.1,1.49c-0.48,0.42-0.78,1.01-0.78,1.67c0,1.28,1.12,2.32,2.49,2.32s2.49-1.04,2.49-2.32
	c0-1.28-1.12-2.32-2.49-2.32C9.9,9.36,9.83,9.4,9.77,9.4l0.04-0.04L7.9,7.08c1.7-1.61,3.23-3.68,3.23-5.84
	C11.13,0.12,10.28,0,10.28,0L10.28,0z M2.49,10.53c0.69,0,1.25,0.52,1.25,1.16c0,0.64-0.56,1.16-1.25,1.16
	c-0.69,0-1.25-0.52-1.25-1.16C1.25,11.05,1.8,10.53,2.49,10.53z M9.97,10.53c0.69,0,1.25,0.52,1.25,1.16c0,0.64-0.56,1.16-1.25,1.16
	c-0.69,0-1.25-0.52-1.25-1.16C8.72,11.05,9.28,10.53,9.97,10.53z"/>
</svg>
