<svg height="22" width="22" xmlns="http://www.w3.org/2000/svg" viewBox="0 0 22 22"><path fill="#fff" fill-rule="evenodd" d="m14.92 6.63c-.44-.27-1.03-.14-1.31.31l-4.02 6.45-1.6-2.11c-.31-.41-.91-.5-1.32-.18-.42.32-.5.91-.19 1.33l2.43 3.21c.18.24.46.37.76.37.01 0 .03 0 .04 0 .31-.01.6-.18.76-.44l4.75-7.63c.28-.44.15-1.03-.3-1.31m-3.92 13.37c-4.97 0-9-4.03-9-9 0-4.97 4.03-9 9-9 4.97 0 9 4.03 9 9 0 4.97-4.03 9-9 9m0-20c-6.08 0-11 4.93-11 11 0 6.08 4.92 11 11 11 6.07 0 11-4.92 11-11 0-6.07-4.93-11-11-11"/></svg>