<svg height="22" width="22" xmlns="http://www.w3.org/2000/svg" viewBox="0 0 22 22"><path fill="#fff" fill-rule="evenodd" d="m11.68 5.49c-.37 0-.69.12-.96.36-.27.24-.4.53-.4.88 0 .34.13.63.4.87.27.24.59.36.96.36.37 0 .69-.12.96-.36.26-.24.39-.53.39-.87 0-.35-.13-.64-.39-.88-.27-.24-.59-.36-.96-.36m.36 9.64c-.29 0-.5-.04-.62-.14-.12-.09-.18-.27-.18-.53 0-.1.02-.26.05-.46.04-.2.08-.38.13-.54l.57-1.95c.05-.18.09-.38.11-.59.02-.22.03-.37.03-.45 0-.42-.15-.75-.44-1.01-.3-.26-.72-.39-1.27-.39-.31 0-.63.06-.97.16-.34.11-.7.23-1.07.38l-.16.61c.11-.04.25-.09.4-.13.16-.05.31-.07.46-.07.3 0 .5.05.61.15.1.1.16.27.16.52 0 .14-.02.3-.06.46-.03.17-.08.35-.12.54l-.58 1.96c-.05.21-.08.39-.11.56-.02.16-.03.32-.03.48 0 .4.15.73.46 1 .3.26.73.39 1.29.39.36 0 .67-.05.94-.14.28-.09.64-.22 1.1-.4l.15-.6c-.08.03-.21.07-.38.12-.18.05-.33.07-.47.07m-1.04 4.87c-4.97 0-9-4.03-9-9 0-4.97 4.03-9 9-9 4.97 0 9 4.03 9 9 0 4.97-4.03 9-9 9m0-20c-6.07 0-11 4.93-11 11 0 6.08 4.93 11 11 11 6.07 0 11-4.92 11-11 0-6.07-4.93-11-11-11"/></svg>