<svg xmlns="http://www.w3.org/2000/svg" width="14" height="18" viewBox="0 0 14 18">
 <path fill="#fff" fill-rule="evenodd" d="m0 4.986v-1.119c0 0 .003-.809 4.083-1.076v-1.438c0-.746.611-1.353 1.361-1.353h3.112c.75 0 1.361.607 1.361 1.353v1.438c4.08.267 4.083 1.076 4.083 1.076v1.119h-14m8-2.992h-2v.998c.422-.011.512 0 1 0 .488 0 .578-.011 1 0v-.998m3.974 16.006h-9.948l-1.023-11.012h11.994l-1.023 11.012m-7.683-8.733c-.018-.294-.29-.518-.612-.502-.319.016-.564.267-.547.561l.387 6.394c.017.284.273.504.579.504.011 0 .022-.001.033-.001.32-.016.565-.268.547-.562l-.387-6.394m3.289.03c0-.295-.259-.533-.58-.533-.32 0-.58.238-.58.533v6.394c0 .294.26.533.58.533.321 0 .58-.239.58-.533v-6.394m2.741-.532c-.315-.014-.594.208-.612.502l-.387 6.394c-.018.294.228.546.547.562.012 0 .022.001.033.001.306 0 .562-.22.579-.504l.387-6.394c.018-.293-.227-.545-.547-.561"/>
</svg>
