<svg xmlns="http://www.w3.org/2000/svg" width="18" height="18" viewBox="0 0 18 18">
 <path fill="#fff" fill-rule="evenodd" d="m18 10.107v-2.25l-2.689-1.12c-.075-.211-.154-.416-.251-.616l1.085-2.702-1.59-1.591-2.679 1.103c-.204-.099-.413-.182-.628-.259l-1.141-2.672h-2.25l-1.111 2.663c-.225.079-.44.163-.653.264l-2.674-1.075-1.591 1.591 1.09 2.65c-.105.218-.191.439-.272.668l-2.646 1.132v2.25l2.648 1.103c.081.228.169.45.274.668l-1.07 2.667 1.591 1.591 2.657-1.094c.213.101.43.182.654.259l1.139 2.663h2.25l1.114-2.676c.213-.079.424-.163.626-.259l2.698 1.081 1.591-1.591-1.107-2.685c.094-.202.171-.407.246-.615l2.689-1.148m-9.018 2.268c-1.863 0-3.375-1.512-3.375-3.375 0-1.863 1.512-3.375 3.375-3.375 1.864 0 3.375 1.512 3.375 3.375 0 1.863-1.511 3.375-3.375 3.375"/>
</svg>
