<svg xmlns="http://www.w3.org/2000/svg" width="16" height="16" viewBox="0 0 16 16">
 <g fill="#fff" fill-rule="evenodd">
  <path d="m14 16h-12c-1.105 0-2-.895-2-2v-12c0-1.105.895-2 2-2h12c1.105 0 2 .895 2 2v12c0 1.105-.895 2-2 2m0-11c0-1.105-.895-2-2-2h-7c-1.105 0-2 .895-2 2v7c0 1.105.895 2 2 2h7c1.105 0 2-.895 2-2v-7"/>
  <path d="m11 13h-5c-1.105 0-2-.895-2-2v-5c0-1.105.895-2 2-2h5c1.105 0 2 .895 2 2v5c0 1.105-.895 2-2 2m1-5c0-1.105-.895-2-2-2h-2c-1.105 0-2 .895-2 2v2c0 1.105.895 2 2 2h2c1.105 0 2-.895 2-2v-2"/>
  <path d="m9 7c1.105 0 2 .895 2 2 0 1.105-.895 2-2 2-1.105 0-2-.895-2-2 0-1.105.895-2 2-2"/>
 </g>
</svg>
