<svg xmlns="http://www.w3.org/2000/svg" width="16" height="16" viewBox="0 0 16 16">
 <path fill="#fff" fill-rule="evenodd" d="m15.979 10.524c0 .009.005.017.005.025 0 .498-.279.916-.679 1.178l-3.796 3.832c-.285.287-.669.432-1.053.432-.356 0-.713-.124-.992-.374-.582-.522-.609-1.393-.06-1.947l1.651-1.668h-5.611c-3.605 0-5.432-1.763-5.432-5.24v-5.306c0-.802.681-1.453 1.523-1.453.841 0 1.523.651 1.523 1.453v5.306c0 1.752.345 2.335 2.386 2.335h5.723l-1.763-1.78c-.549-.554-.522-1.425.06-1.947.581-.52 1.497-.495 2.045.058l4.082 4.121c.271.273.396.625.388.975"/>
</svg>
