<svg xmlns="http://www.w3.org/2000/svg" width="12" height="8" viewBox="-296 392.6 12 8" enable-background="new -296 392.6 12 8">
 <g fill="#474747" fill-rule="evenodd">
  <path d="m-290.2 400.6h-1.5v-3.4h-2.8v3.4h-1.5v-7.9h1.5v3.1h2.8v-3.1h1.5v7.9"/>
  <path d="m-286.3 395.5c.7 0 1.2.2 1.6.6.4.4.6 1 .6 1.8 0 .9-.2 1.6-.7 2-.5.5-1.2.7-2.1.7-.8 0-1.4-.1-1.9-.4v-1.4c.3.2.6.3.9.4.3.1.7.1 1 .1.9 0 1.4-.4 1.4-1.3 0-.8-.5-1.2-1.4-1.2-.2 0-.4 0-.6.1-.2 0-.4.1-.5.1l-.6-.4.3-4h3.9v1.4h-2.5l-.1 1.5h.2c0 0 .2 0 .5 0"/>
 </g>
</svg>
