<svg xmlns="http://www.w3.org/2000/svg" width="12" height="8" viewBox="-292.1 388.2 12 8" enable-background="new -292.1 388.2 12 8">
 <g fill="#474747" fill-rule="evenodd">
  <path d="m-286.2 396.1h-1.5v-3.4h-2.8v3.4h-1.5v-7.8h1.5v3h2.8v-3h1.5v7.8"/>
  <path d="m-280.3 390.1c0 .5-.1.9-.4 1.2-.3.3-.6.6-1.1.7.6.1 1 .3 1.3.6.3.3.4.7.4 1.2 0 .7-.2 1.3-.7 1.7-.5.4-1.2.6-2.1.6-.8 0-1.5-.1-2-.4v-1.4c.3.2.6.3.9.4.3.1.7.1 1 .1.5 0 .9-.1 1.1-.3.2-.2.4-.5.4-.9 0-.4-.1-.6-.4-.8-.3-.2-.7-.2-1.3-.2h-.5v-1.3h.5c.5 0 1-.1 1.2-.2.3-.2.4-.4.4-.8 0-.6-.3-.9-1-.9-.2 0-.5 0-.7.1-.2.1-.5.2-.8.4l-.7-1.1c.6-.5 1.4-.8 2.3-.8.7 0 1.3.2 1.7.5s.5 1 .5 1.6"/>
 </g>
</svg>
