<svg xmlns="http://www.w3.org/2000/svg" preserveAspectRatio="xMidYMid" width="14" height="12" viewBox="0 0 14 12">
    <path fill="#242424" fill-rule="evenodd" d="M13.000,12.000 L1.000,12.000 L-0.000,12.000 L-0.000,11.000 L-0.000,1.000 L-0.000,-0.000 L1.000,-0.000 L13.000,-0.000 L14.000,-0.000 L14.000,1.000 L14.000,11.000 L14.000,12.000 L13.000,12.000 ZM13.000,1.000 L1.000,1.000 L1.000,11.000 L13.000,11.000 L13.000,1.000 Z" class="cls-1"/>
    <path fill="#444444" fill-rule="evenodd" d="M1.000,11.000 L1.000,10.000 L2.000,10.000 L2.000,9.000 L3.000,9.000 L3.000,8.000 L4.000,8.000 L4.000,7.000 L5.000,7.000 L5.000,8.000 L6.000,8.000 L6.000,9.000 L7.000,9.000 L7.000,8.000 L8.000,8.000 L8.000,7.000 L9.000,7.000 L9.000,6.000 L10.000,6.000 L10.000,5.000 L11.000,5.000 L11.000,6.000 L12.000,6.000 L12.000,7.000 L12.000,8.000 L13.000,8.000 L13.000,10.000 L13.000,11.000 L1.000,11.000 ZM4.000,5.000 L3.000,5.000 L3.000,4.000 L2.000,4.000 L2.000,3.000 L3.000,3.000 L3.000,2.000 L4.000,2.000 L4.000,3.000 L5.000,3.000 L5.000,4.000 L4.000,4.000 L4.000,5.000 Z" class="cls-2"/>
</svg>