<svg xmlns="http://www.w3.org/2000/svg" width="12" height="8" viewBox="-592 787.5 12.1 7.9" enable-background="new -592 787.5 12.1 7.9">
 <g fill="#474747" fill-rule="evenodd">
  <path d="m-586.2 795.4h-1.5v-3.4h-2.8v3.4h-1.5v-7.9h1.5v3.1h2.8v-3.1h1.5v7.9"/>
  <path d="m-580 795.4h-4.9v-1.2l1.8-2c.5-.6.9-1 1-1.2.1-.2.3-.4.3-.6.1-.2.1-.4.1-.6 0-.3-.1-.6-.2-.7-.2-.2-.4-.2-.6-.2-.3 0-.5.1-.8.2-.3.1-.5.3-.8.6l-.8-1.1c.3-.3.6-.6.9-.7.2-.1.5-.2.7-.3s.6-.1.9-.1c.4 0 .8.1 1.2.3.3.2.6.4.8.8.2.3.3.7.3 1.1 0 .4-.1.7-.2 1-.1.3-.3.6-.5 1-.2.3-.7.8-1.3 1.4l-.9 1v.1h3.1l-.1 1.2"/>
 </g>
</svg>
