<svg xmlns="http://www.w3.org/2000/svg" x="0px" y="0px" width="16px" height="16px" viewBox="-455 273 16 16" style="enable-background:new -455 273 16 16;" xml:space="preserve">
<path fill="#242424" d="M-440,282.5l-1.3,0.3c-0.1,0.3-0.2,0.6-0.4,0.9l0.7,1.2c0.3,0.4,0.4,1,0,1.4l-0.7,0.7c-0.4,0.4-1,0.3-1.4,0
	l-1.1-0.7c-0.3,0.1-0.6,0.3-0.9,0.4l-0.3,1.3c-0.1,0.5-0.5,1-1.1,1h-1c-0.6,0-0.9-0.5-1-1l-0.3-1.3c-0.3-0.1-0.7-0.2-1-0.4l-1.2,0.7
	c-0.4,0.3-1.1,0.3-1.4,0l-0.7-0.7c-0.4-0.4-0.3-1,0-1.4l0.7-1.2c-0.1-0.3-0.2-0.5-0.3-0.8l-1.3-0.3c-0.5-0.1-1-0.4-1-1v-1
	c0-0.6,0.5-1,1-1.1l1.3-0.3c0.1-0.3,0.2-0.6,0.4-0.9l-0.7-1.2c-0.3-0.4-0.4-1,0-1.4l0.7-0.7c0.4-0.4,1-0.3,1.4,0l1.2,0.7
	c0.3-0.2,0.6-0.3,1-0.4l0.3-1.3c0.1-0.5,0.4-1,1-1h1c0.6,0,1,0.5,1.1,1l0.3,1.3c0.3,0.1,0.6,0.2,0.9,0.4l1.1-0.7
	c0.4-0.3,1.1-0.3,1.4,0l0.7,0.7c0.4,0.4,0.3,1,0,1.4l-0.7,1.2c0.2,0.3,0.3,0.6,0.4,0.9l1.3,0.3c0.5,0.1,1,0.5,1,1.1v1
	C-439,282.1-439.5,282.4-440,282.5z M-440.2,280.5l-1.8-0.4l-0.2-0.6c-0.1-0.2-0.2-0.5-0.3-0.8l-0.3-0.5l1-1.6
	c0.1-0.1,0.1-0.2,0.1-0.2l-0.7-0.6c-0.1,0-0.1,0-0.2,0.1l-1.6,1l-0.5-0.3c-0.2-0.1-0.5-0.2-0.8-0.3l-0.5-0.2l-0.4-1.9
	c0-0.1-0.1-0.2-0.1-0.2h-0.9c0,0-0.1,0.1-0.1,0.2l-0.5,1.8l-0.5,0.2c-0.3,0.1-0.5,0.2-0.8,0.3l-0.5,0.3l-1.7-1.1
	c0,0-0.1-0.1-0.2-0.1l-0.7,0.7c0,0.1,0,0.1,0.1,0.2l1,1.7l-0.2,0.5c-0.1,0.3-0.2,0.5-0.3,0.7l-0.2,0.6l-1.9,0.4
	c-0.1,0-0.2,0.1-0.2,0.1c0,0,0,0,0,0v0.9c0,0,0.1,0.1,0.2,0.1l1.8,0.5l0.2,0.5c0.1,0.2,0.2,0.4,0.3,0.7l0.2,0.5l-1,1.7
	c-0.1,0.1-0.1,0.2-0.1,0.2l0.7,0.6c0.1,0,0.1,0,0.2-0.1l1.6-1l0.5,0.3c0.3,0.1,0.5,0.3,0.8,0.3l0.5,0.2l0.5,1.8
	c0,0.1,0.1,0.2,0.1,0.2h0.9c0,0,0.1-0.1,0.1-0.2l0.4-1.9l0.5-0.2c0.3-0.1,0.5-0.2,0.8-0.3l0.5-0.3l1.6,1c0,0,0.1,0,0.2,0.1l0.7-0.7
	c0-0.1,0-0.1-0.1-0.2l-1-1.6l0.3-0.5c0.1-0.2,0.2-0.5,0.3-0.7l0.2-0.5l1.9-0.5c0.1,0,0.2-0.1,0.2-0.1l0-0.9
	C-440,280.5-440.1,280.5-440.2,280.5z M-447,284c-1.7,0-3-1.3-3-3c0-1.7,1.4-3,3-3c1.7,0,3,1.3,3,3C-444,282.7-445.3,284-447,284z
	 M-447,279c-1.1,0-2,0.9-2,2s0.9,2,2,2s2-0.9,2-2S-445.9,279-447,279z"/>
</svg>