<svg xmlns="http://www.w3.org/2000/svg" width="12" height="8" viewBox="-293.4 384.4 12 8" enable-background="new -293.4 384.4 12 8">
 <g fill="#474747" fill-rule="evenodd">
  <path d="m-287.7 392.3h-1.5v-3.4h-2.8v3.4h-1.5v-7.8h1.5v3.1h2.8v-3.1h1.5v7.8"/>
  <path d="m-286.4 389c0-1.5.3-2.7.9-3.4.6-.8 1.5-1.1 2.7-1.1.4 0 .7 0 .9.1v1.3c-.3-.1-.6-.1-.8-.1-.5 0-.9.1-1.3.3-.3.2-.6.4-.7.8s-.3.8-.3 1.4h.1c.3-.6.8-.9 1.5-.9.6 0 1.1.2 1.5.7s.5 1 .5 1.8c0 .8-.2 1.5-.6 2-.4.5-1 .7-1.8.7-.5 0-1-.1-1.4-.4-.4-.3-.7-.7-.9-1.2-.2-.7-.3-1.3-.3-2m2.5 2.1c.3 0 .6-.1.7-.4.2-.2.3-.6.3-1 0-.4-.1-.7-.2-.9-.2-.2-.4-.3-.7-.3-.3 0-.6.1-.8.3-.2.2-.3.5-.3.8 0 .4.1.8.3 1.1s.4.4.7.4"/>
 </g>
</svg>
