<svg xmlns="http://www.w3.org/2000/svg" width="12px" height="8px" x="0px" y="0px" viewBox="-292.1 388.2 12 8" style="enable-background:new -292.1 388.2 12 8;" xml:space="preserve">
<path fill="#474747" fill-rule="evenodd" d="M-286.2,396.1h-1.5v-3.4h-2.8v3.4h-1.5v-7.8h1.5v3h2.8v-3h1.5V396.1z"/>
<path fill="#474747" fill-rule="evenodd" d="M-280.3,390.1c0,0.5-0.1,0.9-0.4,1.2c-0.3,0.3-0.6,0.6-1.1,0.7v0c0.6,0.1,1,0.3,1.3,0.6c0.3,0.3,0.4,0.7,0.4,1.2
	c0,0.7-0.2,1.3-0.7,1.7c-0.5,0.4-1.2,0.6-2.1,0.6c-0.8,0-1.5-0.1-2-0.4v-1.4c0.3,0.2,0.6,0.3,0.9,0.4c0.3,0.1,0.7,0.1,1,0.1
	c0.5,0,0.9-0.1,1.1-0.3c0.2-0.2,0.4-0.5,0.4-0.9c0-0.4-0.1-0.6-0.4-0.8c-0.3-0.2-0.7-0.2-1.3-0.2h-0.5v-1.3h0.5c0.5,0,1-0.1,1.2-0.2
	c0.3-0.2,0.4-0.4,0.4-0.8c0-0.6-0.3-0.9-1-0.9c-0.2,0-0.5,0-0.7,0.1c-0.2,0.1-0.5,0.2-0.8,0.4l-0.7-1.1c0.6-0.5,1.4-0.8,2.3-0.8
	c0.7,0,1.3,0.2,1.7,0.5S-280.3,389.5-280.3,390.1z"/>
</svg>