<svg xmlns="http://www.w3.org/2000/svg" width="14px" height="7px" x="0px" y="0px" viewBox="200 393.5 14 7" style="enable-background:new 200 393.5 14 7;" xml:space="preserve">
	<path fill="#242424" fill-rule="evenodd" d="M207,395.2L207,395.2L207,395.2C207,395.2,207,395.2,207,395.2z"/>
	<path fill="#242424" fill-rule="evenodd" d="M211.1,393.5h-1.8c0,0,0.9,0.6,1.2,1.8h0.6h0c0.6,0,1.1,0.5,1.1,1.1v1.2c0,0.6-0.5,1.2-1.1,1.2H207
		c-0.6,0-1.2-0.5-1.2-1.2v-1.1h-1.8v1.1c0,0.4,0.1,0.8,0.3,1.2c0.5,1,1.5,1.8,2.7,1.8h4.1c1.6,0,2.9-1.3,2.9-2.9v-1.2
		C214,394.8,212.7,393.5,211.1,393.5z"/>
	<path fill="#242424" fill-rule="evenodd" d="M209.7,395.2c-0.4-1-1.5-1.8-2.7-1.8h-4.1c-1.6,0-2.9,1.3-2.9,2.9v1.2c0,1.6,1.3,2.9,2.9,2.9h1.7
		c0,0-0.9-0.6-1.2-1.8h-0.6c-0.6,0-1.2-0.5-1.2-1.2v-1.2c0-0.6,0.5-1.1,1.2-1.1h4.1h0c0.6,0,1.1,0.5,1.1,1.1v1.2c0,0,0,0,0,0h1.8
		c0,0,0,0,0,0v-1.2C209.9,396,209.8,395.6,209.7,395.2z"/>
</svg>